<svg width="8" height="14" viewBox="0 0 8 14" fill="none" xmlns="http://www.w3.org/2000/svg">
<path d="M0.292952 0.292786C0.105481 0.480314 0.00016543 0.734622 0.000165419 0.999786C0.000165407 1.26495 0.105481 1.51926 0.292952 1.70679L5.24295 6.65679L0.292952 11.6068C0.110794 11.7954 0.00999923 12.048 0.0122775 12.3102C0.0145559 12.5724 0.119725 12.8232 0.305133 13.0086C0.490541 13.194 0.741353 13.2992 1.00355 13.3015C1.26575 13.3037 1.51835 13.2029 1.70695 13.0208L7.36395 7.36379C7.55142 7.17626 7.65674 6.92195 7.65674 6.65679C7.65674 6.39162 7.55142 6.13731 7.36395 5.94979L1.70695 0.292786C1.51942 0.105315 1.26512 -2.79387e-07 0.999952 -2.90977e-07C0.734787 -3.02568e-07 0.48048 0.105315 0.292952 0.292786Z" fill="white" fill-opacity="0.8"/>
</svg>
