<svg width="8" height="14" viewBox="0 0 8 14" fill="none" xmlns="http://www.w3.org/2000/svg">
<path d="M7.36379 13.0087C7.55126 12.8212 7.65657 12.5669 7.65657 12.3017C7.65657 12.0366 7.55126 11.7823 7.36379 11.5947L2.41379 6.64473L7.36379 1.69473C7.54594 1.50613 7.64674 1.25352 7.64446 0.991326C7.64218 0.729129 7.53701 0.478316 7.3516 0.292908C7.1662 0.1075 6.91538 0.00233239 6.65319 5.40686e-05C6.39099 -0.00222425 6.13839 0.0985696 5.94979 0.280728L0.292786 5.93773C0.105315 6.12526 -3.02568e-07 6.37956 -2.90977e-07 6.64473C-2.79387e-07 6.90989 0.105315 7.1642 0.292786 7.35173L5.94979 13.0087C6.13731 13.1962 6.39162 13.3015 6.65679 13.3015C6.92195 13.3015 7.17626 13.1962 7.36379 13.0087Z" fill="white" fill-opacity="0.8"/>
</svg>
