<svg width="12" height="12" viewBox="0 0 12 12" fill="none" xmlns="http://www.w3.org/2000/svg">
<path d="M1.74951 0.288L5.86684 4.40533L9.96284 0.309333C10.0533 0.213032 10.1623 0.135994 10.2833 0.0828397C10.4043 0.0296852 10.5347 0.00150863 10.6668 0C10.9497 0 11.221 0.112381 11.4211 0.312419C11.6211 0.512458 11.7335 0.783769 11.7335 1.06667C11.736 1.19744 11.7117 1.32735 11.6622 1.44841C11.6127 1.56947 11.5389 1.67913 11.4455 1.77067L7.29617 5.86667L11.4455 10.016C11.6213 10.188 11.7244 10.4209 11.7335 10.6667C11.7335 10.9496 11.6211 11.2209 11.4211 11.4209C11.221 11.621 10.9497 11.7333 10.6668 11.7333C10.5309 11.739 10.3953 11.7163 10.2686 11.6667C10.1419 11.6171 10.0269 11.5417 9.93084 11.4453L5.86684 7.328L1.76017 11.4347C1.67005 11.5278 1.56238 11.6021 1.44338 11.6533C1.32438 11.7046 1.1964 11.7318 1.06684 11.7333C0.783943 11.7333 0.512632 11.621 0.312593 11.4209C0.112554 11.2209 0.000173554 10.9496 0.000173554 10.6667C-0.00231337 10.5359 0.02195 10.406 0.0714748 10.2849C0.121 10.1639 0.194741 10.0542 0.288174 9.96267L4.43751 5.86667L0.288174 1.71733C0.112371 1.54534 0.00928248 1.31244 0.000173554 1.06667C0.000173554 0.783769 0.112554 0.512458 0.312593 0.312419C0.512632 0.112381 0.783943 0 1.06684 0C1.32284 0.0032 1.56817 0.106667 1.74951 0.288Z" fill="white" fill-opacity="0.5"/>
</svg>
