<svg width="14" height="11" viewBox="0 0 14 11" fill="none" xmlns="http://www.w3.org/2000/svg">
<path d="M0.649902 1.98336C0.649902 1.62974 0.790378 1.2906 1.04043 1.04055C1.29048 0.7905 1.62961 0.650024 1.98324 0.650024H11.3166C11.6702 0.650024 12.0093 0.7905 12.2594 1.04055C12.5094 1.2906 12.6499 1.62974 12.6499 1.98336M0.649902 1.98336V8.65002C0.649902 9.00365 0.790378 9.34278 1.04043 9.59283C1.29048 9.84288 1.62961 9.98336 1.98324 9.98336H11.3166C11.6702 9.98336 12.0093 9.84288 12.2594 9.59283C12.5094 9.34278 12.6499 9.00365 12.6499 8.65002V1.98336M0.649902 1.98336L6.6499 5.98336L12.6499 1.98336" stroke="url(#paint0_linear_559_2683)" stroke-width="1.3" stroke-linecap="round" stroke-linejoin="round"/>
<defs>
<linearGradient id="paint0_linear_559_2683" x1="6.6499" y1="0.650024" x2="6.6499" y2="9.98336" gradientUnits="userSpaceOnUse">
<stop stop-color="#A961F8"/>
<stop offset="1" stop-color="#0052B4"/>
</linearGradient>
</defs>
</svg>
