<svg width="25" height="26" viewBox="0 0 25 26" fill="none" xmlns="http://www.w3.org/2000/svg">
<path d="M23.4384 13.2525C23.4384 12.3173 23.3639 11.6348 23.2028 10.927H12.7241V15.1483H18.8749C18.7509 16.1974 18.0813 17.7773 16.5931 18.8389L16.5723 18.9802L19.8854 21.5961L20.115 21.6195C22.2231 19.6352 23.4384 16.7156 23.4384 13.2525Z" fill="#4285F4"/>
<path d="M12.7236 24.3749C15.737 24.3749 18.2667 23.3637 20.1145 21.6196L16.5926 18.8389C15.6502 19.5088 14.3853 19.9764 12.7236 19.9764C9.77229 19.9764 7.26735 17.9922 6.37442 15.2495L6.24353 15.2608L2.79847 17.9782L2.75342 18.1059C4.58871 21.8217 8.35854 24.3749 12.7236 24.3749Z" fill="#34A853"/>
<path d="M6.37493 15.2496C6.13932 14.5418 6.00296 13.7834 6.00296 12.9999C6.00296 12.2162 6.13932 11.4579 6.36254 10.7501L6.35629 10.5994L2.86805 7.83838L2.75392 7.89371C1.99751 9.43567 1.56348 11.1672 1.56348 12.9999C1.56348 14.8325 1.99751 16.564 2.75392 18.1059L6.37493 15.2496Z" fill="#FBBC05"/>
<path d="M12.7237 6.0233C14.8194 6.0233 16.2331 6.94594 17.0392 7.71696L20.189 4.5825C18.2545 2.74987 15.7371 1.625 12.7237 1.625C8.35858 1.625 4.58872 4.17804 2.75342 7.89384L6.36204 10.7503C7.26738 8.00763 9.77233 6.0233 12.7237 6.0233Z" fill="#EB4335"/>
</svg>
