<svg width="11" height="14" viewBox="0 0 11 14" fill="none" xmlns="http://www.w3.org/2000/svg">
<path d="M2.6499 5.98336V3.31669C2.6499 2.60945 2.93085 1.93117 3.43095 1.43107C3.93105 0.930976 4.60933 0.650024 5.31657 0.650024C6.02381 0.650024 6.70209 0.930976 7.20219 1.43107C7.70228 1.93117 7.98324 2.60945 7.98324 3.31669V5.98336M0.649902 7.31669C0.649902 6.96307 0.790378 6.62393 1.04043 6.37388C1.29048 6.12383 1.62961 5.98336 1.98324 5.98336H8.6499C9.00352 5.98336 9.34266 6.12383 9.59271 6.37388C9.84276 6.62393 9.98324 6.96307 9.98324 7.31669V11.3167C9.98324 11.6703 9.84276 12.0095 9.59271 12.2595C9.34266 12.5095 9.00352 12.65 8.6499 12.65H1.98324C1.62961 12.65 1.29048 12.5095 1.04043 12.2595C0.790378 12.0095 0.649902 11.6703 0.649902 11.3167V7.31669ZM4.6499 9.31669C4.6499 9.4935 4.72014 9.66307 4.84516 9.7881C4.97019 9.91312 5.13976 9.98336 5.31657 9.98336C5.49338 9.98336 5.66295 9.91312 5.78797 9.7881C5.913 9.66307 5.98324 9.4935 5.98324 9.31669C5.98324 9.13988 5.913 8.97031 5.78797 8.84529C5.66295 8.72026 5.49338 8.65002 5.31657 8.65002C5.13976 8.65002 4.97019 8.72026 4.84516 8.84529C4.72014 8.97031 4.6499 9.13988 4.6499 9.31669Z" stroke="url(#paint0_linear_576_558)" stroke-width="1.3" stroke-linecap="round" stroke-linejoin="round"/>
<defs>
<linearGradient id="paint0_linear_576_558" x1="5.31657" y1="0.650024" x2="5.31657" y2="12.65" gradientUnits="userSpaceOnUse">
<stop stop-color="#A961F8"/>
<stop offset="1" stop-color="#5B5EDB"/>
</linearGradient>
</defs>
</svg>
