<svg width="8" height="11" viewBox="0 0 8 11" fill="none" xmlns="http://www.w3.org/2000/svg">
<path d="M6.66666 10.6667C6.3 10.6667 5.98622 10.5176 5.72533 10.2194C5.46444 9.92127 5.33377 9.56241 5.33333 9.14286V1.52381C5.33333 1.10476 5.464 0.74616 5.72533 0.448001C5.98666 0.149842 6.30044 0.000509228 6.66666 1.29136e-06C7.03288 -0.000506645 7.34688 0.148826 7.60866 0.448001C7.87044 0.747176 8.00088 1.10578 8 1.52381V9.14286C8 9.5619 7.86955 9.92076 7.60866 10.2194C7.34777 10.5181 7.03377 10.6672 6.66666 10.6667ZM1.33333 10.6667C0.966666 10.6667 0.652888 10.5176 0.392 10.2194C0.131111 9.92127 0.000444444 9.56241 0 9.14286V1.52381C0 1.10476 0.130666 0.74616 0.392 0.448001C0.653333 0.149842 0.967111 0.000509228 1.33333 1.29136e-06C1.69955 -0.000506645 2.01355 0.148826 2.27533 0.448001C2.53711 0.747176 2.66755 1.10578 2.66667 1.52381V9.14286C2.66667 9.5619 2.53622 9.92076 2.27533 10.2194C2.01444 10.5181 1.70044 10.6672 1.33333 10.6667Z" fill="white" fill-opacity="0.5"/>
</svg>
