<svg width="21" height="21" viewBox="0 0 21 21" fill="none" xmlns="http://www.w3.org/2000/svg">
<path d="M3 6.90874C2.46586 7.18029 1.96289 7.50923 1.5 7.88974V7.34224C1.50529 6.88264 1.65216 6.43585 1.92058 6.06274C2.189 5.68964 2.56593 5.40836 3 5.25724V6.90874ZM16.14 14.7372C16.14 14.7372 16.1385 14.7447 16.1355 14.7477L16.125 14.7522L14.904 15.4392C14.8005 16.1502 14.6145 16.8342 14.3415 17.4747L16.86 16.0572C17.262 15.8274 17.584 15.4799 17.7824 15.0615C17.9809 14.6431 18.0464 14.174 17.97 13.7172L16.14 14.7372ZM20.688 7.84324C20.4874 7.49914 20.1991 7.21444 19.8525 7.01824L7.8375 0.259237C7.4935 0.0801916 7.10974 -0.0087625 6.72204 0.000680606C6.33435 0.0101237 5.95538 0.117656 5.6205 0.313237C5.28626 0.510524 5.00792 0.789868 4.81184 1.12481C4.61576 1.45976 4.50842 1.83921 4.5 2.22724V6.31774C4.99001 6.17673 5.49224 6.08231 6 6.03574V2.22574C5.99932 2.09458 6.03319 1.96555 6.0982 1.85163C6.16321 1.73772 6.25706 1.64292 6.37033 1.57679C6.4836 1.51065 6.61228 1.47551 6.74344 1.47488C6.8746 1.47426 7.00361 1.50818 7.1175 1.57324L19.1175 8.32324C19.2329 8.38865 19.3289 8.48351 19.3957 8.59814C19.4625 8.71277 19.4977 8.84307 19.4977 8.97574C19.4977 9.10841 19.4625 9.2387 19.3957 9.35333C19.3289 9.46796 19.2329 9.56282 19.1175 9.62824L14.709 12.1077C14.846 12.6147 14.9335 13.1382 14.9715 13.6782L19.8525 10.9332C20.1981 10.7358 20.4856 10.4508 20.686 10.1068C20.8864 9.76293 20.9926 9.37228 20.994 8.97424C20.994 8.57524 20.889 8.18524 20.688 7.84024V7.84324ZM13.5 14.2482C13.5 16.0384 12.7888 17.7553 11.523 19.0212C10.2571 20.2871 8.54021 20.9982 6.75 20.9982C4.95979 20.9982 3.2429 20.2871 1.97703 19.0212C0.711159 17.7553 0 16.0384 0 14.2482C0 12.458 0.711159 10.7411 1.97703 9.47527C3.2429 8.2094 4.95979 7.49824 6.75 7.49824C8.54021 7.49824 10.2571 8.2094 11.523 9.47527C12.7888 10.7411 13.5 12.458 13.5 14.2482ZM10.281 11.4672C10.1404 11.3266 9.94962 11.2476 9.75075 11.2476C9.55188 11.2476 9.36115 11.3266 9.2205 11.4672L5.2515 15.4362L4.2825 14.4672C4.14105 14.3306 3.9516 14.255 3.75495 14.2567C3.5583 14.2584 3.37019 14.3373 3.23114 14.4764C3.09208 14.6154 3.0132 14.8035 3.01149 15.0002C3.00979 15.1968 3.08538 15.3863 3.222 15.5277L4.722 17.0277C4.86265 17.1683 5.05338 17.2473 5.25225 17.2473C5.45112 17.2473 5.64185 17.1683 5.7825 17.0277L10.2825 12.5277C10.4229 12.3869 10.5016 12.196 10.5013 11.9972C10.5011 11.7983 10.4218 11.6077 10.281 11.4672Z" fill="#C0C0C0"/>
</svg>
