<svg width="22" height="22" viewBox="0 0 22 22" fill="none" xmlns="http://www.w3.org/2000/svg">
<path d="M21 11H18.52C18.083 10.9991 17.6577 11.1413 17.3091 11.405C16.9606 11.6686 16.708 12.0392 16.59 12.46L14.24 20.82C14.2249 20.8719 14.1933 20.9175 14.15 20.95C14.1067 20.9825 14.0541 21 14 21C13.9459 21 13.8933 20.9825 13.85 20.95C13.8067 20.9175 13.7751 20.8719 13.76 20.82L8.24 1.18C8.22485 1.12807 8.19327 1.08246 8.15 1.05C8.10673 1.01754 8.05409 1 8 1C7.94591 1 7.89327 1.01754 7.85 1.05C7.80673 1.08246 7.77515 1.12807 7.76 1.18L5.41 9.54C5.29246 9.95915 5.04138 10.3285 4.69486 10.592C4.34835 10.8555 3.92532 10.9988 3.49 11H1" stroke="#34A853" stroke-width="2" stroke-linecap="round" stroke-linejoin="round"/>
</svg>
