<svg width="311" height="211" viewBox="0 0 311 211" fill="none" xmlns="http://www.w3.org/2000/svg">
<g clip-path="url(#clip0_562_406)">
<path opacity="0.87" d="M138.805 161.302L133.884 162.837" stroke="#90F9D9" stroke-width="2" stroke-linecap="round" stroke-linejoin="round"/>
<path opacity="0.87" d="M80.7003 179.412L49.5157 189.13C47.8699 189.642 46.0917 189.528 44.5259 188.809C42.9601 188.091 41.7184 186.819 41.0417 185.241L1.07239 91.9223C0.691228 91.0339 0.50147 90.0758 0.515359 89.1099C0.529249 88.144 0.746478 87.1918 1.15303 86.3146C1.55958 85.4374 2.14643 84.6548 2.87571 84.0172C3.60498 83.3796 4.46048 82.9012 5.38703 82.6129L27.4764 75.7317L30.2626 74.8641" stroke="#90F9D9" stroke-width="2" stroke-linecap="round" stroke-linejoin="round"/>
<path d="M169.288 91.4486L119.863 106.851C118.968 107.131 118.001 107.07 117.15 106.679C116.299 106.288 115.624 105.596 115.257 104.737L85.501 35.0387C85.2942 34.556 85.1914 34.0356 85.1991 33.511C85.2069 32.9864 85.3251 32.4692 85.546 31.9928C85.767 31.5164 86.0859 31.0914 86.4821 30.7452C86.8782 30.3989 87.343 30.1391 87.8462 29.9826L137.277 14.5799C138.171 14.3 139.138 14.3615 139.99 14.7524C140.841 15.1432 141.516 15.8354 141.882 16.6941L171.638 86.3925C171.845 86.8755 171.948 87.3962 171.94 87.9211C171.932 88.446 171.813 88.9634 171.592 89.4398C171.37 89.9163 171.051 90.3412 170.654 90.6872C170.257 91.0332 169.792 91.2926 169.288 91.4486Z" fill="#552182"/>
<path d="M138.404 14.9039C139.047 14.9059 139.675 15.0961 140.209 15.4508C140.744 15.8055 141.162 16.3089 141.411 16.8984L171.167 86.5969C171.347 87.0157 171.435 87.4672 171.429 87.9224C171.422 88.3775 171.319 88.8262 171.128 89.2395C170.936 89.6528 170.659 90.0216 170.316 90.3222C169.972 90.6228 169.569 90.8485 169.133 90.9848L119.702 106.387C118.925 106.634 118.082 106.583 117.34 106.244C116.599 105.904 116.011 105.301 115.693 104.553L85.962 34.8441C85.783 34.4252 85.694 33.9737 85.7009 33.5186C85.7078 33.0634 85.8103 32.6148 86.002 32.2015C86.1936 31.7882 86.4701 31.4193 86.8136 31.1187C87.1571 30.8182 87.5601 30.5925 87.9966 30.4562L137.422 15.0535C137.746 14.9525 138.084 14.902 138.424 14.9039M138.424 14.4053C138.042 14.4043 137.661 14.4632 137.297 14.5798L87.8462 29.9825C87.343 30.139 86.8782 30.3988 86.4821 30.745C86.0859 31.0913 85.767 31.5163 85.546 31.9927C85.3251 32.4691 85.2069 32.9863 85.1991 33.5109C85.1914 34.0355 85.2942 34.5559 85.501 35.0386L115.257 104.727C115.547 105.406 116.031 105.986 116.65 106.393C117.268 106.8 117.994 107.016 118.735 107.016C119.118 107.016 119.498 106.957 119.863 106.841L169.288 91.4435C169.792 91.2863 170.257 91.026 170.653 90.6794C171.049 90.3327 171.368 89.9074 171.59 89.4308C171.811 88.9542 171.93 88.4367 171.938 87.9118C171.946 87.3868 171.844 86.8659 171.638 86.3824L141.887 16.694C141.596 16.0159 141.111 15.4376 140.493 15.0307C139.875 14.6239 139.15 14.4065 138.409 14.4053H138.424Z" fill="#A562ED"/>
<path d="M103.907 59.7208L146.352 45.6245" stroke="#E8B6FF" stroke-width="2" stroke-miterlimit="10" stroke-linecap="round"/>
<path d="M105.661 64.4478L148.101 50.3516" stroke="#E8B6FF" stroke-width="2" stroke-miterlimit="10" stroke-linecap="round"/>
<path d="M107.41 69.1748L116.265 66.2329" stroke="#E8B6FF" stroke-width="2" stroke-miterlimit="10" stroke-linecap="round"/>
<path d="M109.159 73.9068L136.725 64.752" stroke="#E8B6FF" stroke-width="2" stroke-miterlimit="10" stroke-linecap="round"/>
<path d="M110.913 78.6339L153.353 64.5376" stroke="#E8B6FF" stroke-width="2" stroke-miterlimit="10" stroke-linecap="round"/>
<path d="M112.662 83.3608L155.106 69.2695" stroke="#E8B6FF" stroke-width="2" stroke-miterlimit="10" stroke-linecap="round"/>
<path d="M114.416 88.0928L156.855 73.9966" stroke="#E8B6FF" stroke-width="2" stroke-miterlimit="10" stroke-linecap="round"/>
<path d="M116.165 92.8198L158.609 78.7235" stroke="#E8B6FF" stroke-width="2" stroke-miterlimit="10" stroke-linecap="round"/>
<path d="M117.918 97.5518L137.387 91.0846" stroke="#E8B6FF" stroke-width="2" stroke-miterlimit="10" stroke-linecap="round"/>
<path d="M108.813 109.963L57.6037 125.919C56.9291 126.13 56.1998 126.083 55.5578 125.788C54.9159 125.493 54.4072 124.971 54.131 124.323L23.6228 52.9145C23.4667 52.5504 23.389 52.1578 23.3948 51.762C23.4006 51.3662 23.4897 50.976 23.6564 50.6166C23.8231 50.2571 24.0636 49.9365 24.3625 49.6753C24.6614 49.414 25.012 49.2181 25.3917 49.1L76.6012 33.1438C77.2758 32.9342 78.0047 32.9814 78.6463 33.2762C79.288 33.5711 79.7968 34.0925 80.0739 34.7394L110.562 106.148C110.718 106.511 110.796 106.902 110.791 107.297C110.786 107.691 110.698 108.081 110.534 108.439C110.369 108.798 110.131 109.119 109.835 109.382C109.539 109.644 109.191 109.842 108.813 109.963Z" fill="#A562ED"/>
<path d="M102.203 105.006L61.0012 118.13C60.4251 118.309 59.8027 118.269 59.2545 118.018C58.7064 117.766 58.2717 117.321 58.0346 116.769L32.0115 55.8165C31.879 55.5061 31.8132 55.1715 31.8181 54.8343C31.8231 54.497 31.8987 54.1645 32.0402 53.858C32.1818 53.5516 32.386 53.2779 32.6399 53.0544C32.8938 52.831 33.1918 52.6628 33.5148 52.5605L75.2381 39.9402C75.8141 39.7598 76.4371 39.7992 76.9855 40.0509C77.5339 40.3025 77.9686 40.7483 78.2047 41.3014L103.717 101.735C103.853 102.047 103.922 102.384 103.918 102.724C103.915 103.064 103.839 103.399 103.696 103.708C103.553 104.017 103.346 104.292 103.089 104.516C102.832 104.74 102.53 104.907 102.203 105.006Z" stroke="#F3E9FF" stroke-width="2" stroke-miterlimit="10" stroke-linecap="round"/>
<path d="M39.2027 57.9257L47.2657 77.6365C47.3666 77.8825 47.556 78.0821 47.797 78.1965C48.0379 78.3108 48.3131 78.3316 48.5686 78.2548L83.7573 67.7437C83.9011 67.7002 84.0341 67.6271 84.1479 67.5294C84.2616 67.4316 84.3535 67.3112 84.4177 67.1759C84.4819 67.0407 84.517 66.8935 84.5206 66.744C84.5242 66.5945 84.4963 66.4459 84.4388 66.3077L76.1002 46.4473C75.9984 46.2022 75.8086 46.0037 75.5677 45.8903C75.3268 45.7769 75.0522 45.7569 74.7972 45.834L39.8993 56.5046C39.7555 56.5462 39.6221 56.6172 39.5076 56.7131C39.3932 56.809 39.3001 56.9277 39.2345 57.0616C39.1689 57.1954 39.1322 57.3415 39.1267 57.4903C39.1212 57.6391 39.1471 57.7875 39.2027 57.9257Z" fill="#C99FFF"/>
<path d="M197.757 150.257L147.745 165.839C146.923 166.096 146.035 166.04 145.252 165.681C144.47 165.323 143.849 164.688 143.511 163.899L125.25 121.267C125.06 120.823 124.965 120.344 124.972 119.862C124.979 119.379 125.088 118.903 125.291 118.465C125.493 118.027 125.787 117.636 126.151 117.317C126.515 116.998 126.942 116.759 127.405 116.614L177.416 101.032C178.239 100.777 179.128 100.834 179.91 101.194C180.692 101.553 181.313 102.188 181.651 102.977L199.912 145.615C200.1 146.058 200.194 146.536 200.186 147.017C200.178 147.498 200.069 147.973 199.866 148.41C199.663 148.847 199.371 149.237 199.008 149.555C198.644 149.873 198.218 150.112 197.757 150.257Z" fill="#C27DFF"/>
<path d="M147.204 114.111L175.462 105.305C176.175 105.081 176.947 105.13 177.626 105.442C178.305 105.753 178.843 106.306 179.135 106.991L195.006 143.999C195.172 144.385 195.255 144.801 195.249 145.22C195.244 145.64 195.15 146.053 194.973 146.434C194.796 146.815 194.541 147.155 194.224 147.431C193.906 147.707 193.534 147.914 193.131 148.038L149.699 161.571C148.986 161.795 148.215 161.746 147.535 161.435C146.856 161.123 146.318 160.571 146.026 159.885L136.941 138.684" stroke="#F3E9FF" stroke-width="2" stroke-miterlimit="10" stroke-linecap="round"/>
<path d="M131.554 185.959L99.1067 196.071C97.3722 196.614 95.4967 196.497 93.8439 195.743C92.1911 194.988 90.8789 193.65 90.1617 191.987L78.7061 165.251C78.2999 164.311 78.0965 163.297 78.1089 162.274C78.1214 161.251 78.3494 160.243 78.7783 159.313C79.2071 158.383 79.8273 157.554 80.5986 156.878C81.37 156.201 82.2754 155.694 83.2562 155.388L115.704 145.276C117.441 144.734 119.319 144.854 120.972 145.614C122.626 146.373 123.936 147.717 124.649 149.384L136.104 176.121C136.507 177.059 136.708 178.071 136.694 179.091C136.679 180.111 136.451 181.117 136.022 182.044C135.593 182.971 134.974 183.798 134.205 184.472C133.435 185.146 132.532 185.653 131.554 185.959Z" fill="#471C66"/>
<path d="M117.909 144.942V145.44C119.252 145.44 120.566 145.836 121.685 146.576C122.804 147.317 123.678 148.37 124.198 149.604L135.653 176.34C136.028 177.215 136.215 178.158 136.201 179.108C136.187 180.059 135.974 180.996 135.574 181.859C135.174 182.723 134.597 183.493 133.879 184.121C133.162 184.749 132.32 185.22 131.409 185.505L98.9612 195.617C97.3422 196.125 95.5913 196.014 94.0497 195.307C92.5081 194.6 91.2864 193.347 90.6226 191.793L79.167 165.056C78.7921 164.181 78.6057 163.238 78.6197 162.286C78.6336 161.335 78.8476 160.397 79.248 159.534C79.6483 158.67 80.2261 157.899 80.944 157.271C81.662 156.643 82.5042 156.171 83.4165 155.886L115.864 145.779C116.525 145.571 117.215 145.465 117.909 145.465V144.966M117.909 144.966C117.164 144.968 116.424 145.08 115.714 145.301L83.2561 155.388C82.2775 155.693 81.374 156.199 80.6038 156.873C79.8337 157.547 79.2138 158.374 78.7843 159.301C78.3547 160.228 78.1249 161.234 78.1097 162.254C78.0945 163.274 78.2942 164.287 78.6959 165.226L90.1615 191.987C90.8742 193.654 92.1846 194.998 93.8378 195.758C95.491 196.517 97.369 196.638 99.1065 196.096L131.554 185.984C132.533 185.679 133.437 185.173 134.208 184.499C134.978 183.826 135.598 182.999 136.028 182.072C136.458 181.145 136.687 180.138 136.702 179.118C136.717 178.097 136.517 177.085 136.114 176.146L124.659 149.409C124.095 148.092 123.155 146.968 121.955 146.178C120.755 145.388 119.348 144.967 117.909 144.966Z" fill="#A562ED"/>
<g style="mix-blend-mode:multiply">
<path d="M80.0941 34.7394C79.8169 34.0925 79.3081 33.5711 78.6665 33.2762C78.0248 32.9814 77.296 32.9342 76.6213 33.1438L41.2974 44.1536L50.062 64.5974C50.3154 65.2 50.7853 65.6871 51.3802 65.9637C51.975 66.2402 52.652 66.2865 53.2791 66.0933L88.7685 55.0287L80.0941 34.7394Z" fill="#E7C1E8"/>
</g>
<g style="mix-blend-mode:multiply">
<path d="M85.5009 35.0387L92.1909 50.7106L96.1998 49.454C96.5512 49.3447 96.8757 49.1633 97.1524 48.9216C97.429 48.6799 97.6517 48.3831 97.8061 48.0505C97.9605 47.7179 98.0431 47.3569 98.0487 46.9906C98.0543 46.6243 97.9827 46.2609 97.8385 45.9238L90.6324 29.105L87.8261 29.9826C87.3246 30.1413 86.862 30.4026 86.4681 30.7497C86.0741 31.0969 85.7574 31.5222 85.5385 31.9983C85.3195 32.4745 85.203 32.991 85.1966 33.5146C85.1901 34.0382 85.2938 34.5573 85.5009 35.0387Z" fill="#E7C1E8"/>
</g>
<path opacity="0.87" d="M98.3245 43.645L56.8468 56.5645C56.2203 56.7575 55.5441 56.7111 54.9501 56.4345C54.3561 56.1579 53.8871 55.6709 53.6347 55.0686L38.4708 19.6659C38.3266 19.3289 38.255 18.9654 38.2606 18.5991C38.2661 18.2328 38.3488 17.8717 38.5032 17.5392C38.6575 17.2066 38.8802 16.9098 39.1569 16.6681C39.4335 16.4264 39.758 16.245 40.1094 16.1356L81.5821 3.21118C82.2086 3.01705 82.8853 3.06285 83.4796 3.3396C84.0739 3.61634 84.5428 4.10407 84.7943 4.70707L99.9582 40.1098C100.103 40.4468 100.176 40.8103 100.171 41.177C100.166 41.5436 100.084 41.9051 99.9301 42.2383C99.7762 42.5714 99.5538 42.8687 99.2772 43.111C99.0006 43.3533 98.6761 43.5352 98.3245 43.645Z" fill="#90F9D9"/>
<path opacity="0.87" d="M95.6235 42.3685L57.9944 54.0913C57.429 54.2695 56.8171 54.2313 56.2786 53.9841C55.74 53.7369 55.3136 53.2986 55.0829 52.755L41.3221 20.6432C41.1917 20.3364 41.1275 20.0058 41.1337 19.6727C41.1399 19.3397 41.2163 19.0117 41.3581 18.7099C41.4998 18.4081 41.7037 18.1393 41.9564 17.9209C42.2092 17.7025 42.5053 17.5393 42.8255 17.442L80.4495 5.71428C81.0157 5.53818 81.6274 5.57735 82.1661 5.82422C82.7049 6.07109 83.1325 6.50808 83.3661 7.0506L97.1218 39.1623C97.2531 39.4691 97.3182 39.7999 97.3127 40.1332C97.3073 40.4666 97.2315 40.7951 97.0902 41.0974C96.9489 41.3998 96.7453 41.6692 96.4926 41.8881C96.2399 42.1071 95.9438 42.2708 95.6235 42.3685Z" stroke="white" stroke-miterlimit="10"/>
<g style="mix-blend-mode:multiply">
<path d="M125.25 121.267L132.366 137.926L145.174 133.982C145.349 133.929 145.51 133.84 145.647 133.722C145.785 133.603 145.896 133.457 145.974 133.293C146.052 133.13 146.095 132.951 146.099 132.77C146.104 132.589 146.071 132.409 146.001 132.241L138.184 113.249L127.385 116.614C126.924 116.761 126.499 117.002 126.137 117.322C125.775 117.641 125.484 118.033 125.283 118.471C125.082 118.909 124.975 119.384 124.969 119.865C124.964 120.347 125.059 120.824 125.25 121.267Z" fill="#E7C1E8"/>
</g>
<path opacity="0.85" d="M148.206 129.659L46.6741 160.908C46.3612 161.003 46.0239 160.978 45.7282 160.839C45.4326 160.7 45.1998 160.456 45.0755 160.155L36.4713 139.252C36.4019 139.084 36.3684 138.904 36.373 138.722C36.3776 138.541 36.4201 138.362 36.4979 138.198C36.5757 138.034 36.687 137.888 36.8248 137.769C36.9626 137.65 37.1238 137.561 37.2981 137.507L138.835 106.283C139.148 106.185 139.487 106.208 139.785 106.348C140.082 106.487 140.315 106.733 140.439 107.036L149.043 127.933C149.108 128.101 149.138 128.28 149.131 128.459C149.123 128.639 149.079 128.815 149.001 128.977C148.922 129.138 148.811 129.282 148.674 129.4C148.538 129.517 148.378 129.605 148.206 129.659Z" fill="#F3E9FF"/>
<path d="M122.224 44.7661C122.339 43.0239 120.78 41.5036 118.742 41.3703C116.704 41.237 114.959 42.5413 114.844 44.2835C114.729 46.0257 116.287 47.546 118.326 47.6793C120.364 47.8126 122.109 46.5083 122.224 44.7661Z" fill="#A562ED"/>
<g style="mix-blend-mode:multiply">
<path d="M147.85 30.6807C145.099 32.7949 145.024 36.9086 145.244 39.2272C144.061 39.8134 142.973 40.5731 142.017 41.481C141.975 41.5183 141.934 41.5582 141.897 41.6006L141.862 41.6405C141.581 41.4311 141.311 41.2416 141.04 41.0621L140.93 40.9873C140.679 40.8178 140.429 40.6682 140.188 40.5236L140.058 40.4488C139.822 40.3142 139.587 40.1895 139.361 40.0748L139.251 40.025C139.02 39.9103 138.795 39.8106 138.574 39.7208H138.539C138.324 39.6361 138.113 39.5662 137.908 39.5014L137.828 39.4765C137.635 39.4193 137.439 39.3727 137.241 39.3369H137.136C136.951 39.302 136.77 39.277 136.6 39.2621H136.505C136.338 39.2527 136.171 39.2527 136.004 39.2621H135.959C135.801 39.2702 135.643 39.2885 135.488 39.3169H135.437C135.29 39.3469 135.145 39.3852 135.001 39.4316L134.921 39.4565C134.788 39.5049 134.657 39.5615 134.53 39.6261L134.46 39.661C134.334 39.7281 134.212 39.803 134.094 39.8854L134.054 39.9153C133.94 39.9983 133.832 40.0882 133.729 40.1845C133.623 40.2893 133.523 40.394 133.428 40.5086L133.383 40.5635C133.293 40.6732 133.207 40.7929 133.122 40.9125C133.112 40.9358 133.098 40.9576 133.082 40.9774C133.002 41.102 132.927 41.2367 132.857 41.3713C132.855 41.3862 132.855 41.4013 132.857 41.4162C132.706 41.718 132.58 42.0315 132.481 42.3536V42.4034C132.436 42.563 132.391 42.7276 132.356 42.9021V42.9619C132.32 43.1314 132.285 43.306 132.26 43.4855V43.5204C132.205 43.9054 132.173 44.2934 132.165 44.6822C132.165 44.8816 132.165 45.0761 132.165 45.2805V45.3055C132.165 45.5049 132.165 45.7094 132.205 45.9088C132.446 48.4568 133.558 51.0547 135.407 52.3661C135.543 52.4596 135.684 52.5462 135.828 52.6253C135.99 52.7165 136.158 52.7981 136.329 52.8697C136.493 52.9337 136.661 52.9886 136.831 53.0342C137.004 53.0778 137.179 53.1095 137.357 53.129C137.439 53.1341 137.521 53.1341 137.602 53.129C137.602 53.4481 137.567 53.7672 137.567 54.0913C137.353 54.4548 137.226 54.8627 137.196 55.283L136.515 55.6969C136.515 55.6969 137.216 57.8659 137.713 58.5291L138.028 58.4094C138.028 58.4543 138.028 58.4992 138.028 58.5441C138.088 58.8133 138.154 59.0826 138.224 59.3469C137.825 59.3954 137.439 59.5189 137.086 59.7109C135.924 60.3391 135.342 61.5059 135.783 62.3137C136.224 63.1215 137.527 63.2711 138.69 62.6428C138.898 62.5297 139.093 62.3942 139.271 62.2389C141.506 67.0756 145.746 70.561 150.386 71.1893L150.446 71.2442C150.712 71.4685 150.982 71.678 151.258 71.8774L151.418 71.9921C152.912 73.0385 154.626 73.7325 156.429 74.0215L156.64 74.4105L156.033 74.939C154.53 76.2554 152.881 77.7313 151.589 78.9879C147.58 79.1474 138.815 79.3918 135.964 78.6289C132.225 77.6316 122.353 55.9263 122.353 55.9263L122.017 56.1407C120.674 50.7505 119.276 55.2631 119.276 55.2631C119.276 55.2631 114.902 48.6662 114.616 49.8131C114.33 50.9599 118.124 56.5695 118.124 56.5695C118.124 56.5695 114.686 55.6371 114.892 56.7141C115.062 57.5867 117.898 57.9706 118.901 58.0853L118.069 58.6089C118.069 58.6089 125.535 81.127 130.371 85.2008C133.057 87.4596 142.443 90.1223 150.266 92.047H150.346L150.987 92.2016H151.067C151.243 93.1895 151.267 94.1983 151.138 95.1933C151.033 95.7924 151.097 96.4085 151.323 96.9734L169.268 91.3788C169.772 91.2228 170.237 90.9634 170.634 90.6174C171.031 90.2714 171.35 89.8464 171.571 89.37C171.793 88.8935 171.911 88.3762 171.92 87.8513C171.928 87.3264 171.825 86.8057 171.618 86.3227L147.85 30.6807Z" fill="#CA97CC"/>
</g>
<g style="mix-blend-mode:multiply">
<path d="M181.651 102.977C181.312 102.188 180.692 101.553 179.91 101.194C179.127 100.834 178.239 100.777 177.416 101.032L161.932 105.859C166.999 110.709 171.72 115.906 176.058 121.411C176.913 121.034 177.736 120.589 178.519 120.08C180.884 124.692 188.541 139.566 194.965 151.125L197.757 150.257C198.219 150.112 198.647 149.873 199.011 149.554C199.375 149.236 199.668 148.845 199.871 148.406C200.074 147.968 200.182 147.492 200.189 147.01C200.196 146.527 200.102 146.049 199.912 145.605L181.651 102.977Z" fill="#E7C1E8"/>
</g>
<path d="M141.541 49.813L140.449 50.4762C140.449 50.4762 141.15 52.6452 141.646 53.3084L142.348 53.0341" fill="#009DC1"/>
<path d="M140.574 50.546L141.577 49.9376L141.547 49.813L140.454 50.4762C140.454 50.4762 141.156 52.6452 141.652 53.3084L141.717 53.2834C141.256 52.4062 140.873 51.4902 140.574 50.546Z" fill="#7BF9FF"/>
<path d="M149.459 35.6669C149.459 35.6669 147.454 26.6168 153.498 24.5126C159.541 22.4084 165.159 26.9559 167.594 26.8661C170.03 26.7764 164.332 9.18969 176.845 8.73594C189.358 8.28219 200.077 25.0411 194.339 42.2139C188.601 59.3867 163.881 77.8809 152.746 64.3082" fill="#EA196C"/>
<path d="M149.459 35.6669C149.459 35.6669 147.454 26.6168 153.498 24.5126C159.541 22.4084 165.159 26.9559 167.594 26.8661C170.03 26.7764 164.332 9.18969 176.845 8.73594C189.358 8.28219 200.077 25.0411 194.339 42.2139C188.601 59.3867 163.881 77.8809 152.746 64.3082" fill="#EA196C"/>
<path d="M192.696 19.3617C197.206 28.2822 196.344 45.2904 185.224 49.9526C179.616 52.3012 176.033 51.3986 174.445 46.6417C172.856 41.8848 168.787 44.1187 168.787 44.1187C167.284 38.3395 164.778 36.2004 164.778 36.2004L151.749 55.8215L152.721 64.2982C163.866 77.8709 188.586 59.3767 194.314 42.2039C195.605 38.4845 196.128 34.5437 195.849 30.6183C195.571 26.6929 194.499 22.8641 192.696 19.3617Z" fill="#D1095B"/>
<path d="M123.275 52.9146C123.275 52.9146 119.071 52.5805 118.865 51.5034C118.66 50.4264 122.093 51.3638 122.093 51.3638C122.093 51.3638 118.279 45.7493 118.585 44.6024C118.891 43.4556 123.245 50.0524 123.245 50.0524C123.245 50.0524 124.709 45.3404 126.077 51.289" fill="#FACEBB"/>
<path d="M153.302 64.6623L150.03 36.021C150.03 36.021 148.026 26.9709 154.069 24.8667C160.113 22.7624 165.725 27.3099 168.161 27.2202C170.596 27.1304 164.898 9.54379 177.416 9.09004C180.345 9.01805 183.229 9.81661 185.7 11.3837C183.106 9.58751 180.004 8.66011 176.845 8.736C164.317 9.18976 170.03 26.7814 167.594 26.8662C165.159 26.9509 159.576 22.4084 153.498 24.5126C147.419 26.6169 149.459 35.667 149.459 35.667L152.736 64.3083C153.713 65.5176 154.901 66.5412 156.244 67.3299C155.135 66.5921 154.143 65.6929 153.302 64.6623Z" fill="#FF7BB7"/>
<path d="M223.855 48.4567C223.855 48.4567 226.787 51.4734 227.754 50.9499C228.721 50.4263 225.815 48.377 225.815 48.377C225.815 48.377 232.595 47.7387 233.301 46.7913C234.008 45.8439 226.105 46.6766 226.105 46.6766C226.105 46.6766 228.836 42.5579 223.349 45.2904" fill="#FACEBB"/>
<path d="M168.306 46.4274C168.306 46.4274 166.382 28.9754 155.312 33.1938L168.306 46.4274Z" fill="white"/>
<path d="M157.577 73.6874C157.577 73.6874 143.651 74.4204 139.913 73.4182C136.174 72.4159 126.307 50.7156 126.307 50.7156L122.058 53.4032C122.058 53.4032 129.524 75.9213 134.365 79.9901C139.206 84.0589 165.82 89.4641 165.82 89.4641" fill="white"/>
<path d="M247.558 196.939C247.558 196.939 246.16 205.076 246.115 211L256.232 199.033L250.915 193.932L247.558 196.939Z" fill="white"/>
<path d="M181.761 113.393C181.761 113.393 199.761 148.731 206.276 158.27C212.791 167.809 247.423 197.971 247.423 197.971L251.327 194.196C251.327 194.196 218.102 153.049 215.797 148.821C213.492 144.592 201.059 110.491 201.059 110.491L204.657 108.781C204.657 108.781 234.81 119.836 246.952 120.299C259.094 120.763 296.518 95.1783 296.518 95.1783L292.258 91.4086C292.258 91.4086 252.399 103.515 246.366 104.338C240.332 105.161 204.552 88.7161 204.552 88.7161" fill="#43C9D7"/>
<path d="M164.127 66.183C164.127 66.183 154.636 74.0913 153.358 76.1556C152.08 78.2199 155.818 85.9486 155.127 89.9776C154.435 94.0065 161.406 96.4598 161.406 96.4598C161.406 96.4598 171.147 101.521 181.761 113.368L204.552 88.7061C204.552 88.7061 192.355 80.364 190.22 76.6442C188.085 72.9245 179.867 58.888 177.782 58.908C175.698 58.9279 164.127 66.183 164.127 66.183Z" fill="white"/>
<path d="M167.934 72.9357L167.137 73.3668C166.267 73.8373 165.245 73.9447 164.295 73.6654C163.346 73.3861 162.547 72.7429 162.074 71.8773L156.569 61.8015L163.921 57.8243L169.426 67.9001C169.899 68.7657 170.007 69.7828 169.727 70.7276C169.446 71.6724 168.799 72.4675 167.929 72.9381L167.934 72.9357Z" fill="#FACEBB"/>
<path opacity="0.86" d="M166.106 61.845C164.749 64.4806 162.568 66.6066 159.892 67.9034L156.57 61.845L163.936 57.856L166.106 61.845Z" fill="#F5A8A4"/>
<path d="M141.987 53.3184C143.771 61.481 151.008 67.3748 158.169 65.829C165.33 64.2833 169.694 55.8814 167.895 47.7188C166.096 39.5562 157.662 35.0037 150.512 36.5495C143.361 38.0952 140.208 45.1608 141.987 53.3184Z" fill="#FACEBB"/>
<path d="M166.632 48.3121C166.427 50.1072 166.758 51.8923 168.281 52.0718C169.804 52.2513 171.954 50.7454 172.165 48.9553C172.375 47.1652 171.308 45.5597 169.779 45.3851C168.251 45.2106 166.843 46.517 166.632 48.3121Z" fill="#FACEBB"/>
<path d="M170.952 49.3393C171.014 49.1172 171.028 48.8844 170.991 48.6569C170.954 48.4293 170.868 48.2124 170.738 48.0211C170.609 47.8298 170.44 47.6686 170.242 47.5486C170.044 47.4286 169.823 47.3527 169.593 47.3261C169.363 47.2995 169.129 47.3228 168.909 47.3944C168.689 47.4661 168.487 47.5843 168.317 47.741C168.147 47.8977 168.014 48.0892 167.925 48.3023C167.837 48.5154 167.796 48.745 167.805 48.9753C167.783 49.2258 167.783 49.4777 167.805 49.7282" stroke="#F5A8A4" stroke-width="0.5" stroke-linecap="round" stroke-linejoin="round"/>
<path d="M167.945 50.5261C168.097 50.579 168.26 50.5851 168.415 50.5434C168.57 50.5018 168.708 50.4144 168.812 50.2928C168.916 50.1712 168.98 50.0211 168.996 49.8625C169.012 49.7038 168.98 49.544 168.903 49.4041C168.802 49.22 168.632 49.0831 168.43 49.0233C168.228 48.9635 168.011 48.9857 167.825 49.085" stroke="#F5A8A4" stroke-width="0.5" stroke-linecap="round" stroke-linejoin="round"/>
<path d="M151.804 47.3498C151.843 47.42 151.901 47.4773 151.972 47.5146C152.043 47.5518 152.123 47.5674 152.203 47.5592C152.283 47.551 152.358 47.5195 152.42 47.4687C152.482 47.4178 152.527 47.3499 152.55 47.2735C152.573 47.1971 152.573 47.1156 152.549 47.0393C152.526 46.963 152.48 46.8953 152.418 46.8448C152.356 46.7943 152.28 46.7632 152.201 46.7554C152.121 46.7477 152.04 46.7637 151.97 46.8013C151.923 46.8264 151.881 46.8606 151.847 46.9018C151.813 46.943 151.788 46.9904 151.772 47.0414C151.757 47.0923 151.752 47.1458 151.758 47.1988C151.763 47.2517 151.779 47.303 151.804 47.3498Z" fill="#BF726B"/>
<path d="M144.758 50.7005C144.797 50.7707 144.855 50.828 144.926 50.8653C144.997 50.9025 145.077 50.9181 145.157 50.9099C145.237 50.9017 145.312 50.8702 145.374 50.8194C145.436 50.7685 145.481 50.7006 145.504 50.6242C145.527 50.5478 145.527 50.4663 145.504 50.39C145.48 50.3137 145.434 50.246 145.372 50.1955C145.31 50.145 145.235 50.1139 145.155 50.1061C145.075 50.0984 144.995 50.1144 144.924 50.152C144.877 50.1771 144.835 50.2113 144.801 50.2525C144.767 50.2937 144.742 50.3411 144.727 50.3921C144.711 50.443 144.706 50.4965 144.712 50.5495C144.717 50.6024 144.733 50.6537 144.758 50.7005Z" fill="#BF726B"/>
<path d="M152.681 44.2184C152.424 43.9741 152.095 43.8185 151.742 43.7745C151.389 43.7305 151.031 43.8005 150.722 43.9741" stroke="#BF726B" stroke-width="0.5" stroke-linecap="round" stroke-linejoin="round"/>
<path d="M144.127 47.1653C143.814 47.2464 143.53 47.4117 143.305 47.6431C143.081 47.8744 142.925 48.1628 142.854 48.4767" stroke="#BF726B" stroke-width="0.5" stroke-linecap="round" stroke-linejoin="round"/>
<path opacity="0.86" d="M156.776 50.2967C157.106 51.1544 158.374 51.4735 159.612 51.0048C160.85 50.5361 161.576 49.4541 161.245 48.5914C160.915 47.7288 159.647 47.4146 158.409 47.8834C157.171 48.3521 156.42 49.4341 156.776 50.2967Z" fill="#F5A8A4"/>
<path opacity="0.86" d="M139.747 57.0931C140.188 57.9008 141.491 58.0504 142.654 57.4222C143.816 56.7939 144.398 55.6271 143.952 54.8143C143.506 54.0016 142.208 53.857 141.045 54.4852C139.883 55.1135 139.301 56.2803 139.747 57.0931Z" fill="#F5A8A4"/>
<path d="M152.336 54.181C152.318 54.4555 152.22 54.7189 152.055 54.9393C151.889 55.1597 151.663 55.3276 151.404 55.4226C150.697 55.6769 149.955 56.1556 150.321 57.0182C150.968 58.5141 154.786 57.8759 155.252 55.0736C155.668 52.5704 152.476 51.8225 152.336 54.181Z" fill="#E66D86"/>
<path d="M153.914 54.8093C154.124 54.6955 154.357 54.6289 154.596 54.6143C154.835 54.5996 155.074 54.6373 155.297 54.7245C155.294 54.8414 155.284 54.9579 155.267 55.0736C155.182 55.5732 154.977 56.0451 154.67 56.4495C154.363 56.8539 153.963 57.1789 153.503 57.3972C153.403 57.2931 153.315 57.1776 153.242 57.0531C153.138 56.8619 153.073 56.6522 153.051 56.436C153.028 56.2197 153.049 56.0012 153.111 55.7928C153.174 55.5845 153.277 55.3904 153.414 55.2216C153.552 55.0529 153.722 54.9128 153.914 54.8093Z" fill="#FA9EA9"/>
<path d="M147.986 48.4867C147.986 48.4867 148.412 50.8652 148.662 52.5256L147.204 53.2037C147.289 53.6675 148.171 54.1761 149.369 54.0963" stroke="#BF726B" stroke-width="0.5" stroke-linecap="round" stroke-linejoin="round"/>
<path d="M192.29 103.291L197.221 109.708L203.284 107.051" stroke="white" stroke-width="0.5" stroke-linecap="round" stroke-linejoin="round"/>
<path d="M202.478 94.929C202.478 94.929 206.817 97.3025 208.992 93.3783" stroke="white" stroke-width="0.5" stroke-linecap="round" stroke-linejoin="round"/>
<path d="M188.175 112.64C188.175 112.64 189.759 118.818 186.512 118.439" stroke="white" stroke-width="0.5" stroke-linecap="round" stroke-linejoin="round"/>
<path d="M172.49 61.2666C172.49 61.2666 188.526 51.7428 196.213 49.0153C203.9 46.2878 223.65 44.8567 223.65 44.8567L223.89 49.0053C223.89 49.0053 202.342 54.5401 199.581 55.8315C196.82 57.123 182.979 67.8285 182.979 67.8285L172.49 61.2666Z" fill="white"/>
<path d="M167.88 45.9686C164.608 31.5831 156.61 33.6425 156.61 33.6425C150.797 31.0845 145.816 36.3949 145.816 36.3949C134.736 28.1376 133.789 43.2411 139.271 47.1154C144.753 50.9898 153.087 39.636 153.087 39.636C155.146 42.2039 158.424 41.107 158.424 41.107C161.496 46.0334 165.254 47.659 166.662 48.1227C166.79 47.2809 167.224 46.5148 167.88 45.9686Z" fill="#EA196C"/>
<path d="M169.288 63.0765C166.502 64.6971 164.127 66.183 164.127 66.183C164.127 66.183 161.947 67.998 159.536 70.1172L158.685 70.9449C158.685 70.9449 161.776 84.9514 169.323 82.0394C175.462 79.6759 171.132 67.5592 169.288 63.0765Z" fill="#FACEBB"/>
<path d="M296.518 95.1932L311 93.7721L296.212 86.911L292.258 91.4236L296.518 95.1932Z" fill="white"/>
<path d="M244.877 197.258L246.321 199.422L253.006 194.351L250.71 192.321L244.877 197.258Z" fill="#92F2F7"/>
<path d="M290.564 91.2641L292.198 89.7682L298.457 95.6769L295.791 97.482L290.564 91.2641Z" fill="#92F2F7"/>
<g style="mix-blend-mode:multiply">
<path d="M195.747 104.228C199.723 99.1193 204.53 94.7086 209.969 91.1793C206.677 89.7183 204.552 88.741 204.552 88.741L181.761 113.403C181.761 113.403 182.262 114.371 183.099 116.021C185.73 114.41 190.446 110.935 195.747 104.228Z" fill="#F4D9E2"/>
</g>
<path d="M161.431 96.4847C168.227 102.464 174.46 109.048 180.052 116.156C180.052 116.156 186.792 113.463 194.905 103.191C203.019 92.9195 211.357 88.8507 211.357 88.8507C211.357 88.8507 192.39 78.6787 191.368 77.2825C190.345 75.8864 184.086 66.4623 184.086 66.4623" fill="white"/>
<path d="M176.865 86.0534C176.865 86.0534 187.248 86.6568 184.382 77.8311" stroke="#F9AAF5" stroke-width="0.5" stroke-linecap="round" stroke-linejoin="round"/>
<path d="M155.056 87.0307C155.056 87.0307 154.355 84.0389 153.793 81.4709C153.793 81.4709 154.254 84.8915 154.259 86.8362L155.056 87.0307Z" fill="#F7DFF7"/>
<path d="M156.61 33.6425C153.297 32.1865 150.261 33.2785 148.256 34.4952C152.877 32.391 156.239 34.1062 156.239 34.1062C162.308 33.2037 165.57 39.3818 164.021 40.389C162.473 41.3962 159.01 36.4897 159.01 36.4897C159.01 36.4897 160.012 39.3967 157.321 39.9801C154.63 40.5635 152.726 37.6964 152.726 37.6964C151.453 40.9179 149.229 43.6802 146.347 45.6196C142.223 48.2673 140.118 47.5643 139.687 47.3698C145.144 50.4114 153.082 39.636 153.082 39.636C155.142 42.204 158.419 41.107 158.419 41.107C161.491 46.0335 165.249 47.659 166.657 48.1227C166.784 47.2792 167.218 46.5111 167.875 45.9637C164.608 31.5832 156.61 33.6425 156.61 33.6425Z" fill="#D1095B"/>
<path d="M145.816 36.4149C136.049 29.1399 134.18 40.01 137.608 45.3403C135.603 40.354 136.4 36.365 138.67 34.8691C140.94 33.3732 145.796 37.0381 145.796 37.0381C146.482 35.6819 148.256 34.545 148.256 34.545C147.369 35.066 146.549 35.6941 145.816 36.4149Z" fill="#FF7BB7"/>
<path d="M177.481 14.1801C179.467 14.1079 181.043 13.1393 181.002 12.0164C180.961 10.8936 179.318 10.0418 177.332 10.1139C175.346 10.1861 173.77 11.1547 173.811 12.2776C173.852 13.4004 175.495 14.2522 177.481 14.1801Z" fill="#FF7BB7"/>
<path d="M172.921 12.1864C172.928 12.2391 172.925 12.2927 172.911 12.3441C172.897 12.3955 172.873 12.4436 172.841 12.4858C172.808 12.528 172.767 12.5633 172.721 12.5898C172.675 12.6163 172.623 12.6334 172.57 12.6402C172.48 12.6606 172.385 12.6528 172.299 12.6178C172.214 12.5828 172.141 12.5222 172.091 12.4444C172.041 12.3667 172.016 12.2754 172.02 12.1832C172.024 12.0909 172.056 12.0021 172.113 11.9289C172.17 11.8557 172.248 11.8017 172.336 11.7742C172.425 11.7467 172.52 11.747 172.608 11.7752C172.696 11.8033 172.774 11.8579 172.83 11.9315C172.886 12.0051 172.918 12.0941 172.921 12.1864Z" fill="#FF7BB7"/>
<path d="M173.563 11.0891C173.563 11.1437 173.498 11.1934 173.407 11.1983C173.317 11.2033 173.247 11.1586 173.242 11.099C173.237 11.0394 173.312 10.9947 173.402 10.9898C173.492 10.9848 173.563 11.0295 173.563 11.0891Z" fill="#FF7BB7"/>
<path d="M181.977 10.6657C181.977 10.6951 181.972 10.7245 181.962 10.7519C181.951 10.7794 181.935 10.8045 181.914 10.8258C181.894 10.8471 181.869 10.8642 181.842 10.8761C181.815 10.888 181.786 10.8944 181.756 10.8951C181.696 10.8951 181.639 10.8714 181.597 10.8293C181.555 10.7873 181.531 10.7302 181.531 10.6707C181.531 10.6112 181.555 10.5541 181.597 10.512C181.639 10.4699 181.696 10.4463 181.756 10.4463C181.814 10.4487 181.869 10.4726 181.909 10.5133C181.95 10.5539 181.974 10.6083 181.977 10.6657Z" fill="#FF7BB7"/>
<path d="M184.537 12.8496C184.272 13.2086 183.61 13.1787 183.034 12.7748C182.457 12.3709 182.242 11.7775 182.533 11.3936C182.823 11.0096 183.46 11.0695 184.011 11.4684C184.562 11.8673 184.798 12.4806 184.537 12.8496Z" fill="#FF7BB7"/>
<path d="M141.697 36.33C141.586 36.7639 140.955 36.9733 140.294 36.8038C139.632 36.6342 139.176 36.1456 139.291 35.7118C139.407 35.2779 140.028 35.0735 140.694 35.243C141.361 35.4126 141.807 35.9162 141.697 36.33Z" fill="#FF7BB7"/>
<path d="M138.755 36.6293C138.757 36.6817 138.749 36.734 138.73 36.7831C138.712 36.8323 138.684 36.8774 138.648 36.9158C138.613 36.9543 138.569 36.9853 138.522 37.0072C138.474 37.029 138.422 37.0412 138.369 37.0432C138.262 37.0459 138.159 37.0065 138.081 36.9337C138.003 36.8609 137.957 36.7605 137.953 36.6542C137.95 36.5485 137.989 36.4457 138.062 36.3685C138.135 36.2914 138.235 36.2462 138.342 36.2429C138.448 36.2396 138.551 36.2784 138.629 36.3509C138.706 36.4234 138.752 36.5235 138.755 36.6293Z" fill="#FF7BB7"/>
<path d="M138.881 35.7118C138.881 35.7281 138.879 35.7445 138.873 35.7599C138.867 35.7752 138.859 35.7894 138.847 35.8014C138.836 35.8134 138.823 35.8232 138.808 35.83C138.793 35.8369 138.777 35.8408 138.76 35.8414C138.726 35.8415 138.693 35.8287 138.668 35.8056C138.643 35.7824 138.628 35.7507 138.625 35.7167C138.625 35.6832 138.638 35.651 138.661 35.6268C138.685 35.6026 138.717 35.5884 138.75 35.5871C138.767 35.5857 138.785 35.5879 138.801 35.5935C138.817 35.5992 138.831 35.6083 138.844 35.6201C138.856 35.6319 138.866 35.6462 138.872 35.662C138.878 35.6778 138.881 35.6947 138.881 35.7118Z" fill="#FF7BB7"/>
<path d="M182.809 48.8407C182.839 49.5587 181.852 50.177 180.604 50.2219C179.356 50.2668 178.334 49.7233 178.309 49.0052C178.284 48.2872 179.266 47.6689 180.508 47.6241C181.751 47.5792 182.784 48.1227 182.809 48.8407Z" fill="#D1095B"/>
<path d="M177.331 48.3022C177.336 48.4137 177.308 48.5241 177.249 48.6195C177.191 48.7149 177.106 48.7909 177.004 48.8378C176.902 48.8848 176.789 48.9007 176.678 48.8834C176.567 48.8661 176.464 48.8165 176.381 48.7408C176.299 48.6651 176.241 48.5667 176.215 48.4582C176.189 48.3496 176.195 48.2358 176.234 48.1312C176.273 48.0265 176.343 47.9357 176.434 47.8702C176.524 47.8048 176.633 47.7677 176.745 47.7637C176.894 47.7583 177.04 47.8118 177.15 47.9127C177.259 48.0136 177.325 48.1536 177.331 48.3022Z" fill="#D1095B"/>
<path d="M178.469 46.946C178.47 47.006 178.448 47.0641 178.407 47.1079C178.365 47.1517 178.309 47.1777 178.248 47.1803C178.219 47.1817 178.189 47.1772 178.161 47.1671C178.133 47.1571 178.108 47.1416 178.086 47.1217C178.064 47.1018 178.046 47.0778 178.034 47.051C178.021 47.0243 178.014 46.9954 178.013 46.9659C178.011 46.9059 178.034 46.8478 178.075 46.804C178.116 46.7601 178.173 46.7341 178.233 46.7316C178.263 46.7302 178.292 46.7347 178.32 46.7448C178.348 46.7548 178.374 46.7702 178.396 46.7902C178.418 46.8101 178.435 46.8341 178.448 46.8608C178.46 46.8876 178.467 46.9165 178.469 46.946Z" fill="#D1095B"/>
<path d="M157.698 38.7833C157.698 39.1672 157.196 39.4963 156.55 39.5213C155.904 39.5462 155.367 39.252 155.352 38.8681C155.337 38.4841 155.853 38.15 156.5 38.1301C157.146 38.1101 157.683 38.4093 157.698 38.7833Z" fill="#D1095B"/>
<path d="M158.053 38.3695C158.043 38.417 158.044 38.4662 158.056 38.5132C158.068 38.5603 158.091 38.6041 158.122 38.6411C158.154 38.6782 158.193 38.7077 158.238 38.7272C158.283 38.7468 158.331 38.7559 158.38 38.754C158.429 38.752 158.476 38.739 158.519 38.7159C158.562 38.6929 158.599 38.6604 158.628 38.6209C158.656 38.5814 158.675 38.536 158.683 38.4881C158.691 38.4402 158.688 38.3911 158.675 38.3445C158.679 38.298 158.674 38.2511 158.659 38.2066C158.645 38.1621 158.622 38.1208 158.592 38.0851C158.562 38.0494 158.525 38.02 158.483 37.9986C158.441 37.9773 158.396 37.9643 158.349 37.9606C158.256 37.9765 158.172 38.0283 158.117 38.1048C158.062 38.1812 158.039 38.2763 158.053 38.3695Z" fill="#D1095B"/>
<path d="M157.853 37.9107C157.846 37.9526 157.824 37.9906 157.792 38.018C157.759 38.0454 157.718 38.0604 157.675 38.0604C157.632 38.0604 157.591 38.0454 157.559 38.018C157.526 37.9906 157.504 37.9526 157.497 37.9107C157.493 37.885 157.494 37.8586 157.501 37.8335C157.508 37.8083 157.52 37.7849 157.537 37.765C157.554 37.7451 157.575 37.7291 157.599 37.7181C157.623 37.7071 157.649 37.7014 157.675 37.7014C157.701 37.7014 157.727 37.7071 157.751 37.7181C157.775 37.7291 157.796 37.7451 157.813 37.765C157.83 37.7849 157.842 37.8083 157.849 37.8335C157.856 37.8586 157.857 37.885 157.853 37.9107Z" fill="#D1095B"/>
<path d="M143.01 52.8696L143.822 53.0989C144.466 53.2797 145.15 53.257 145.781 53.0341L147.685 52.356C147.743 52.3357 147.797 52.3041 147.842 52.263C147.888 52.2219 147.925 52.1721 147.951 52.1166C147.997 52.0115 148.065 51.917 148.15 51.8388C148.235 51.7607 148.334 51.7007 148.443 51.6624C148.552 51.6241 148.668 51.6084 148.783 51.6162C148.898 51.624 149.011 51.6551 149.113 51.7078C149.225 51.7507 149.347 51.7593 149.464 51.7327L154.029 50.4263C154.423 50.3138 154.789 50.1205 155.103 49.8588C155.417 49.5971 155.672 49.2728 155.853 48.9068C156.033 48.5408 156.134 48.1413 156.15 47.734C156.166 47.3266 156.095 46.9206 155.944 46.542L155.693 45.9137C155.346 45.0647 154.716 44.3604 153.909 43.9192L153.182 43.5203L143.01 52.8696Z" fill="#009DC1"/>
<path d="M141.356 51.3737C141.64 52.0081 142.158 52.5099 142.803 52.7761C143.448 53.0422 144.171 53.0525 144.823 52.8048L153.343 49.5986C154.007 49.348 154.549 48.8501 154.851 48.21C155.154 47.5699 155.196 46.8377 154.966 46.168L154.575 45.0461C154.447 44.672 154.239 44.3302 153.965 44.0444C153.69 43.7585 153.357 43.5355 152.987 43.3908C152.618 43.2461 152.221 43.1831 151.825 43.2064C151.428 43.2296 151.042 43.3384 150.692 43.5253L142.578 47.8584C141.965 48.1807 141.497 48.7231 141.27 49.3758C141.043 50.0285 141.073 50.7427 141.356 51.3737Z" fill="#43C9D7"/>
<path d="M142.669 48.0578L150.782 43.7248C151.409 43.3907 152.142 43.3126 152.826 43.5072C153.509 43.7017 154.09 44.1535 154.445 44.7669C154.287 44.4314 154.063 44.1313 153.785 43.8851C153.507 43.6389 153.181 43.4518 152.828 43.3351C152.475 43.2184 152.101 43.1747 151.731 43.2065C151.36 43.2383 150.999 43.3451 150.672 43.5203L142.558 47.8534C141.948 48.1791 141.484 48.723 141.261 49.3754C141.038 50.0278 141.072 50.7401 141.356 51.3687C141.384 51.4269 141.416 51.4835 141.451 51.5383C141.177 50.912 141.151 50.2062 141.376 49.5613C141.602 48.9164 142.063 48.3796 142.669 48.0578Z" fill="#7BF9FF"/>
<path d="M142.388 50.8153C142.572 51.2211 142.905 51.5419 143.318 51.7124C143.731 51.8828 144.194 51.8901 144.613 51.7328L152.445 48.6413C152.872 48.4805 153.219 48.1615 153.413 47.7513C153.607 47.3411 153.634 46.8718 153.488 46.4423L153.237 45.7193C153.157 45.4759 153.025 45.2529 152.849 45.0661C152.673 44.8793 152.458 44.7332 152.219 44.6381C151.98 44.543 151.723 44.5012 151.466 44.5157C151.209 44.5302 150.958 44.6007 150.732 44.722L143.145 48.5366C142.75 48.748 142.451 49.1021 142.31 49.526C142.169 49.9498 142.197 50.4112 142.388 50.8153Z" fill="#5EE4EA"/>
<path d="M143.821 50.0823L151.964 46.8013" stroke="white" stroke-miterlimit="10" stroke-linecap="round"/>
<path d="M154.696 44.6672C154.696 44.6672 161.711 42.7276 166.828 42.3386L167.529 44.5575C167.529 44.5575 163.37 44.6572 155.643 46.8861" fill="#009DC1"/>
<path d="M159.166 43.266L160.083 46.0484L163.355 45.3254L162.718 42.4882L159.166 43.266Z" fill="#43C9D7"/>
<path d="M160.363 43.8445L160.754 45.0362L162.157 44.727L161.887 43.5104L160.363 43.8445Z" fill="#7BF9FF"/>
<path d="M55.4037 151.798C60.0007 151.798 63.7273 148.561 63.7273 144.568C63.7273 140.574 60.0007 137.337 55.4037 137.337C50.8067 137.337 47.0801 140.574 47.0801 144.568C47.0801 148.561 50.8067 151.798 55.4037 151.798Z" fill="#F3E9FF"/>
<path d="M66.5337 133.353C68.7687 132.68 69.9263 136.5 72.1563 135.847C74.3862 135.193 73.2337 131.359 75.4687 130.686C77.7036 130.013 78.8612 133.837 81.0962 133.179C83.3312 132.521 82.1736 128.691 84.4036 128.023C86.6336 127.355 87.7962 131.169 90.0312 130.516C92.2662 129.863 91.1036 126.028 93.3386 125.355C95.5736 124.682 96.7312 128.507 98.9662 127.848C101.201 127.19 100.044 123.361 102.279 122.688C104.514 122.015 105.671 125.834 107.906 125.181C110.141 124.528 108.984 120.693 111.219 120.02C113.454 119.347 114.611 123.171 116.846 122.513" stroke="#F3E9FF" stroke-width="2" stroke-miterlimit="10" stroke-linecap="round"/>
<path d="M69.2798 141.581L138.7 120.519" stroke="#F3E9FF" stroke-width="2" stroke-miterlimit="10" stroke-linecap="round"/>
<path d="M70.8335 145.934L120.64 131.05" stroke="#F3E9FF" stroke-width="2" stroke-miterlimit="10" stroke-linecap="round"/>
<path d="M149.845 175.134L190.626 162.359" stroke="#F3E9FF" stroke-width="2" stroke-miterlimit="10" stroke-linecap="round"/>
<path d="M158.524 169.868L160.218 174.151" stroke="#F3E9FF" stroke-width="2" stroke-miterlimit="10" stroke-linecap="round"/>
<path d="M151.985 182.643L192.761 169.868" stroke="#F3E9FF" stroke-width="2" stroke-miterlimit="10" stroke-linecap="round"/>
<path d="M180.909 170.85L182.603 175.134" stroke="#F3E9FF" stroke-width="2" stroke-miterlimit="10" stroke-linecap="round"/>
<path opacity="0.19" d="M124.659 149.384C123.946 147.717 122.636 146.373 120.982 145.614C119.329 144.854 117.451 144.734 115.714 145.276L83.2561 155.388C82.2775 155.693 81.374 156.199 80.6038 156.873C79.8337 157.547 79.2138 158.374 78.7843 159.301C78.3547 160.228 78.1249 161.234 78.1097 162.254C78.0945 163.274 78.2942 164.287 78.6959 165.226L80.6653 169.828L127.154 155.233L124.659 149.384Z" fill="#C27DFF"/>
<path d="M69.4803 41.7702C78.1595 41.7702 85.1954 35.8207 85.1954 28.4817C85.1954 21.1427 78.1595 15.1932 69.4803 15.1932C60.801 15.1932 53.7651 21.1427 53.7651 28.4817C53.7651 35.8207 60.801 41.7702 69.4803 41.7702Z" fill="#10BFAA"/>
<path d="M69.4805 28.4817L85.7769 18.5091C83.2713 15.0187 79.1922 12.4458 74.3914 11.4236L69.4805 28.4817Z" fill="#FFD163"/>
<path d="M102.269 32.695C103.807 32.1964 105 36.0259 106.538 35.5472C108.077 35.0685 106.884 31.259 108.417 30.7803C109.951 30.3016 111.153 34.1112 112.692 33.6325C114.23 33.1538 113.038 29.3442 114.576 28.8705C116.114 28.3969 117.307 32.1964 118.846 31.7177C120.384 31.239 119.191 27.4345 120.73 26.9558C122.268 26.4771 123.466 30.2817 125.004 29.803C126.543 29.3243 125.345 25.5198 126.884 25.0411C128.422 24.5624 129.62 28.3669 131.163 27.8882C132.707 27.4096 131.509 23.605 133.047 23.1214C134.586 22.6377 135.783 26.4522 137.327 25.9735" stroke="#90F9D9" stroke-width="2" stroke-miterlimit="10" stroke-linecap="round"/>
<path d="M28.3633 166.881L31.0142 172.994" stroke="#90F9D9" stroke-linecap="round" stroke-linejoin="round"/>
<path d="M14.6477 135.263L26.3489 162.244" stroke="#90F9D9" stroke-linecap="round" stroke-linejoin="round"/>
<path d="M76.0752 1.02214L78.6109 0.249268" stroke="#90F9D9" stroke-linecap="round" stroke-linejoin="round"/>
<path d="M61.1113 5.60459L73.7496 1.73523" stroke="#90F9D9" stroke-linecap="round" stroke-linejoin="round"/>
<path d="M191.588 155.463L194.399 154.59" stroke="#C27DFF" stroke-linecap="round" stroke-linejoin="round"/>
<path d="M176.905 160.015L189.463 156.121" stroke="#C27DFF" stroke-linecap="round" stroke-linejoin="round"/>
<path d="M144.122 16.2054L147.78 24.6323" stroke="#C27DFF" stroke-linecap="round" stroke-linejoin="round"/>
<path d="M83.8774 184.258L87.6408 192.591" stroke="#C27DFF" stroke-linecap="round" stroke-linejoin="round"/>
<path d="M191.498 13.8219C191.498 13.8219 201.49 10.4462 204.026 15.7865C206.561 21.1269 199.065 24.8616 193.001 28.5614C187.353 32.002 185.239 37.7262 188.696 40.9623C193.542 45.4999 201.866 36.6442 201.866 36.6442" stroke="white" stroke-miterlimit="10" stroke-linecap="round"/>
<path d="M161.26 7.36475C161.26 7.36475 161.892 11.8973 167.775 12.9993" stroke="white" stroke-miterlimit="10" stroke-linecap="round"/>
<path d="M240.387 176.575C245.975 171.942 249.482 167.933 248.671 166.846C247.668 165.47 240.127 169.28 231.863 175.358C223.6 181.436 217.737 187.5 218.759 188.851C219.5 189.848 223.695 188.103 229.112 184.727" stroke="white" stroke-miterlimit="10" stroke-linecap="round"/>
<path d="M155.307 16.2055L155.011 15.6071L154.34 15.5074L154.826 15.0387L154.711 14.3755L155.307 14.6896L155.908 14.3755L155.793 15.0387L156.274 15.5074L155.608 15.6071L155.307 16.2055Z" fill="#FFD163"/>
</g>
<defs>
<clipPath id="clip0_562_406">
<rect width="311" height="211" fill="white"/>
</clipPath>
</defs>
</svg>
