<svg width="308" height="235" viewBox="0 0 308 235" fill="none" xmlns="http://www.w3.org/2000/svg">
<path d="M102.779 141.847C102.779 141.847 96.0969 179.553 96.5921 181.473C99.896 194.363 107.257 181.799 108.295 184.302C108.295 184.302 117.297 149.486 116.924 146.148C115.499 133.293 107.087 130.735 102.779 141.847Z" fill="#F48989"/>
<path d="M208.971 88.8297C208.971 88.8297 209.541 84.7592 213.041 86.7945C213.041 86.7945 215.232 86.15 216.135 87.8663C216.135 87.8663 218.591 87.8663 218.753 89.0943C219.255 92.8526 212.146 104.413 212.146 104.413L202.526 101.116C202.526 101.116 199.588 90.4918 201.244 88.5922C202.282 87.405 204.168 91.177 204.168 91.177C204.168 91.177 204.073 83.7145 205.653 82.3577C207.234 81.0008 211.291 79.6101 211.8 79.6101C212.736 79.6101 215.388 80.2885 209.9 83.6806C208.971 84.2436 208.971 88.8297 208.971 88.8297Z" fill="#FFA9A8"/>
<path d="M169.304 103.667C182.275 108.28 195.402 143.781 195.402 143.781L176.237 147.851L176.746 140.463L167.35 134.195L169.304 103.667Z" fill="#6C00D3"/>
<path d="M125.126 103.667C112.155 108.28 99.0684 143.781 99.0684 143.781L118.233 147.851L117.725 140.463L127.08 134.195L125.126 103.667Z" fill="#6C00D3"/>
<path d="M129.44 76.279C129.44 76.279 124.78 62.7922 132.052 60.9266C132.052 60.9266 133.47 56.6051 141.102 56.0081C148.734 55.4111 147.208 51.0082 147.208 51.0082C148.067 51.4141 148.77 52.0883 149.212 52.929C149.654 53.7698 149.81 54.7315 149.657 55.6689C149.657 55.6689 153.504 50.2416 151.075 46.2594C151.075 46.2594 160.288 45.9202 162.649 56.0963C162.649 56.0963 163.598 52.2769 162.649 50.072C162.649 50.072 175.131 58.8914 164.982 76.279H129.44Z" fill="#FF5757"/>
<path d="M129.169 80.9194C129.169 79.4807 128.004 78.3143 126.568 78.3143C125.131 78.3143 123.966 79.4807 123.966 80.9194V84.8678C123.966 86.3065 125.131 87.4729 126.568 87.4729C128.004 87.4729 129.169 86.3065 129.169 84.8678V80.9194Z" fill="#4F008C"/>
<path d="M128.219 76.2791H131.781V89.5148H128.219C127.784 89.5148 127.366 89.3419 127.058 89.034C126.751 88.7261 126.578 88.3085 126.578 87.8731V77.9208C126.578 77.4854 126.751 77.0678 127.058 76.7599C127.366 76.452 127.784 76.2791 128.219 76.2791Z" fill="white"/>
<path d="M129.44 76.2791V87.1743C129.44 87.7933 129.686 88.3868 130.124 88.8245C130.562 89.2622 131.155 89.508 131.774 89.508V76.2791H129.44Z" fill="#FF5757"/>
<path d="M169.304 103.666C176.828 108.035 180.518 184.723 180.518 184.723H147.235V99.0126C147.235 99.0126 163.219 100.098 169.304 103.666Z" fill="#4F008C"/>
<path d="M125.126 103.666C117.602 108.035 113.912 184.723 113.912 184.723H147.235V99.0126C147.235 99.0126 131.211 100.098 125.126 103.666Z" fill="#4F008C"/>
<path d="M165.254 84.8677C165.254 86.3064 166.418 87.4728 167.855 87.4728C169.292 87.4728 170.457 86.3064 170.457 84.8677V80.9193C170.457 79.4806 169.292 78.3142 167.855 78.3142C166.418 78.3142 165.254 79.4806 165.254 80.9193V84.8677Z" fill="#4F008C"/>
<path d="M166.217 89.5081H162.655V76.2791H166.217C166.653 76.2791 167.07 76.452 167.378 76.7599C167.686 77.0678 167.859 77.4854 167.859 77.9208V87.9002C167.85 88.3297 167.673 88.7387 167.366 89.0392C167.059 89.3398 166.647 89.5081 166.217 89.5081Z" fill="white"/>
<path d="M164.989 87.1743V76.2791H162.655V89.508C162.962 89.508 163.265 89.4477 163.548 89.3304C163.832 89.2131 164.089 89.0412 164.306 88.8245C164.522 88.6078 164.694 88.3505 164.811 88.0674C164.929 87.7843 164.989 87.4808 164.989 87.1743Z" fill="#FF5757"/>
<path d="M137.92 101.726C137.92 101.726 134.576 115.349 145.838 116.265C157.099 117.18 158.13 106.869 157.275 102.208" stroke="white" stroke-width="2" stroke-miterlimit="10"/>
<path d="M153.341 99.3925L147.235 100.81L141.082 99.3925L140.404 104.874C140.277 105.847 140.36 106.836 140.645 107.775C140.93 108.713 141.412 109.581 142.058 110.319C142.704 111.058 143.5 111.65 144.392 112.058C145.285 112.465 146.254 112.678 147.235 112.682C148.219 112.683 149.191 112.474 150.088 112.068C150.984 111.663 151.784 111.071 152.433 110.332C153.082 109.592 153.566 108.723 153.853 107.782C154.139 106.841 154.221 105.849 154.094 104.874L153.341 99.3925Z" fill="#FFA9A8"/>
<path d="M153.463 100.207L153.361 99.3925L147.235 100.81L141.082 99.3925L140.404 104.874C140.339 105.422 140.339 105.975 140.404 106.523C151.306 106.21 153.463 100.207 153.463 100.207Z" fill="#F48989"/>
<path d="M162.635 76.2791C161.883 73.8518 160.367 71.732 158.314 70.2345C156.903 69.2847 152.052 68.8098 147.208 68.8098C142.365 68.8098 137.514 69.2847 136.103 70.2345C134.046 71.7302 132.528 73.8504 131.775 76.2791C130.289 82.3848 131.775 89.5081 131.775 89.5081C133.036 92.81 135.117 95.7364 137.822 98.0116C140.527 100.287 143.766 101.836 147.236 102.513C150.701 101.832 153.937 100.281 156.64 98.0065C159.342 95.7316 161.421 92.8073 162.683 89.5081C162.683 89.5081 164.121 82.3848 162.635 76.2791Z" fill="#FFA9A8"/>
<path d="M141.13 84.1011C140.887 84.1011 140.654 84.0046 140.482 83.8328C140.31 83.6611 140.214 83.4281 140.214 83.1852C140.216 83.0286 140.257 82.8749 140.334 82.7385C140.411 82.6021 140.522 82.4874 140.655 82.4051C140.235 82.2446 139.774 82.2225 139.341 82.3421C138.907 82.4616 138.523 82.7166 138.245 83.0697C137.967 83.4229 137.808 83.8558 137.793 84.3052C137.778 84.7547 137.907 85.1972 138.161 85.5682C138.415 85.9392 138.781 86.2194 139.206 86.3677C139.63 86.5161 140.091 86.5249 140.521 86.3929C140.951 86.2609 141.327 85.995 141.596 85.634C141.864 85.273 142.01 84.8357 142.012 84.386C142.011 84.1378 141.965 83.8918 141.876 83.6601C141.799 83.7904 141.69 83.899 141.559 83.9761C141.429 84.0531 141.281 84.0961 141.13 84.1011Z" fill="#310051"/>
<path d="M136.164 79.9832L135.77 78.6874C138.266 78.241 140.814 78.1588 143.334 78.4432L143.192 79.8C140.851 79.5454 138.487 79.607 136.164 79.9832Z" fill="#310051"/>
<path d="M155.668 84.1011C155.469 84.1 155.276 84.0342 155.117 83.9135C154.959 83.7928 154.844 83.6238 154.791 83.4322C154.737 83.2405 154.747 83.0366 154.82 82.8513C154.892 82.6659 155.023 82.5093 155.193 82.4051C154.773 82.2446 154.312 82.2225 153.879 82.3421C153.445 82.4616 153.061 82.7166 152.783 83.0697C152.505 83.4229 152.346 83.8558 152.331 84.3052C152.316 84.7547 152.445 85.1972 152.699 85.5682C152.953 85.9392 153.319 86.2194 153.744 86.3677C154.168 86.5161 154.629 86.5249 155.059 86.3929C155.489 86.2609 155.866 85.995 156.134 85.634C156.402 85.273 156.548 84.8357 156.55 84.386C156.547 84.138 156.501 83.8925 156.414 83.6601C156.336 83.7899 156.227 83.8983 156.097 83.9753C155.967 84.0523 155.819 84.0955 155.668 84.1011Z" fill="#310051"/>
<g style="mix-blend-mode:screen" opacity="0.5">
<path d="M143.918 80.8176H135.614C135.086 80.8176 134.658 81.2459 134.658 81.7742V86.8148C134.658 87.3431 135.086 87.7713 135.614 87.7713H143.918C144.446 87.7713 144.875 87.3431 144.875 86.8148V81.7742C144.875 81.2459 144.446 80.8176 143.918 80.8176Z" fill="white"/>
</g>
<path d="M158.253 79.9832C155.626 79.7425 152.983 79.7425 150.356 79.9832L151.082 78.4433C153.602 78.1591 156.15 78.2414 158.646 78.6875L158.212 79.9764L158.429 79.332L158.253 79.9832Z" fill="#310051"/>
<path d="M134.651 81.7675H129.44V84.3861H134.651V81.7675Z" fill="white"/>
<path d="M134.651 81.7675H133.579V86.8148H134.651V81.7675Z" fill="white"/>
<path d="M129.793 89.5081V95.4984H142.629" stroke="white" stroke-miterlimit="10"/>
<path d="M132.053 75.4922C132.053 75.4922 142.344 77.9751 149.691 71.7541C157.039 65.5331 147.208 59.882 147.208 59.882C147.208 59.882 128.199 63.8574 132.053 75.4922Z" fill="#FF5757"/>
<path d="M152.025 68.8098C153.069 70.9334 154.587 72.7886 156.462 74.2319C158.337 75.6753 160.519 76.6682 162.839 77.1339L162.316 70.3837C162.316 70.3837 160.152 66.7813 159.264 66.2725C157.014 65.3319 154.71 64.5255 152.364 63.8574C151.291 63.5099 150.149 63.4353 149.04 63.6403L145.648 64.5765L152.025 68.8098Z" fill="#FF5757"/>
<path d="M143.334 94.4808H138.897V96.5161H143.334V94.4808Z" fill="white"/>
<path d="M147.479 84.2911C147.479 84.2911 144.915 89.3792 145.851 89.7591C147.046 90.067 148.299 90.067 149.494 89.7591C149.752 89.5488 147.479 84.2911 147.479 84.2911Z" fill="#F48989"/>
<path d="M145.634 94.4808C148.273 94.5757 150.078 94.1483 152.038 92.5066C151.767 95.5391 147.615 96.6585 145.634 94.4808Z" fill="white"/>
<path d="M140.289 75.7566C140.289 75.7566 150.777 75.8245 155.105 69.2982C159.433 62.7719 155.105 55.8114 155.105 55.8114C155.105 55.8114 155.851 62.3038 152.683 64.5086C152.683 64.5086 153.022 61.7068 151.509 60.2211C151.509 60.2482 150.377 71.9643 140.289 75.7566Z" fill="#FF8080"/>
<path d="M177.764 147.58C177.764 147.58 186.997 152.634 190.918 151.169C198.055 148.503 214.303 99.9352 214.303 99.9352L202.587 101.088L186.305 131.108L177.764 147.58Z" fill="#FFA9A8"/>
<path d="M177.764 147.58L186.332 131.108L181.386 149.317C179.277 148.441 177.764 147.58 177.764 147.58Z" fill="#F48989"/>
<path style="mix-blend-mode:color-dodge" d="M240.075 63.5114H152.35H142.079H54.3472L101.822 224.328H192.607L240.075 63.5114Z" fill="url(#paint0_linear_562_97)"/>
<g style="mix-blend-mode:soft-light">
<path d="M147.236 215.801C137.977 215.801 128.927 213.055 121.229 207.912C113.531 202.768 107.531 195.457 103.989 186.904C100.446 178.35 99.5186 168.939 101.325 159.858C103.131 150.778 107.589 142.437 114.136 135.891C120.682 129.344 129.023 124.886 138.103 123.08C147.184 121.273 156.596 122.2 165.149 125.743C173.703 129.286 181.013 135.286 186.157 142.984C191.3 150.682 194.046 159.732 194.046 168.99C194.026 181.399 189.088 193.294 180.314 202.069C171.539 210.843 159.644 215.781 147.236 215.801ZM147.236 123.239C138.191 123.239 129.349 125.921 121.828 130.946C114.308 135.971 108.446 143.113 104.985 151.469C101.524 159.826 100.618 169.021 102.383 177.892C104.147 186.763 108.503 194.912 114.898 201.307C121.294 207.703 129.443 212.058 138.314 213.823C147.185 215.588 156.38 214.682 164.736 211.221C173.093 207.759 180.235 201.898 185.26 194.377C190.285 186.857 192.967 178.015 192.967 168.97C192.953 156.846 188.13 145.222 179.557 136.649C170.984 128.076 159.36 123.253 147.236 123.239Z" fill="#C5DBFC"/>
<path d="M200.64 168.97H197.648C197.632 155.603 192.316 142.788 182.866 133.334C173.416 123.88 160.603 118.559 147.235 118.537V115.545C161.396 115.567 174.97 121.203 184.981 131.218C194.993 141.233 200.624 154.81 200.64 168.97Z" fill="#C5DBFC"/>
<path d="M147.235 222.388C133.071 222.372 119.492 216.738 109.476 206.723C99.4606 196.707 93.8267 183.128 93.8105 168.963H96.8023C96.8167 182.335 102.135 195.155 111.589 204.611C121.044 214.067 133.863 219.387 147.235 219.403V222.388Z" fill="#C5DBFC"/>
<path d="M147.235 146.026C142.697 146.026 138.262 147.372 134.488 149.893C130.715 152.414 127.775 155.997 126.038 160.19C124.301 164.382 123.847 168.996 124.732 173.446C125.618 177.897 127.803 181.985 131.012 185.194C134.22 188.403 138.309 190.588 142.759 191.473C147.21 192.358 151.823 191.904 156.016 190.167C160.208 188.431 163.791 185.49 166.312 181.717C168.834 177.944 170.179 173.508 170.179 168.97C170.172 162.887 167.752 157.056 163.451 152.754C159.15 148.453 153.318 146.033 147.235 146.026ZM147.235 188.386C143.394 188.386 139.638 187.247 136.444 185.112C133.25 182.978 130.76 179.944 129.29 176.395C127.82 172.845 127.436 168.939 128.186 165.172C128.936 161.404 130.787 157.943 133.504 155.227C136.221 152.511 139.682 150.661 143.45 149.913C147.218 149.164 151.124 149.55 154.673 151.021C158.222 152.492 161.255 154.982 163.388 158.177C165.522 161.372 166.66 165.128 166.658 168.97C166.653 174.119 164.605 179.055 160.963 182.696C157.322 186.336 152.384 188.383 147.235 188.386Z" fill="#C5DBFC"/>
<path d="M147.235 135.47C140.61 135.47 134.133 137.435 128.624 141.116C123.115 144.797 118.821 150.029 116.285 156.15C113.75 162.272 113.086 169.007 114.379 175.506C115.672 182.004 118.862 187.973 123.547 192.658C128.232 197.343 134.201 200.534 140.7 201.826C147.198 203.119 153.934 202.455 160.055 199.92C166.176 197.384 171.408 193.091 175.089 187.582C178.77 182.073 180.735 175.596 180.735 168.97C180.726 160.088 177.194 151.572 170.913 145.292C164.633 139.012 156.117 135.479 147.235 135.47ZM147.235 197.321C141.628 197.321 136.147 195.658 131.484 192.543C126.822 189.428 123.188 185 121.043 179.819C118.897 174.639 118.335 168.939 119.429 163.439C120.523 157.94 123.223 152.888 127.188 148.923C131.153 144.958 136.205 142.258 141.704 141.164C147.204 140.07 152.904 140.632 158.085 142.777C163.265 144.923 167.693 148.557 170.808 153.219C173.923 157.882 175.586 163.363 175.586 168.97C175.577 176.486 172.587 183.692 167.272 189.007C161.957 194.322 154.752 197.312 147.235 197.321Z" fill="#C5DBFC"/>
<path d="M120.221 193.155C115.027 187.393 111.826 180.112 111.09 172.389H104.787C105.54 181.782 109.402 190.655 115.764 197.606L120.221 193.155Z" fill="#C5DBFC"/>
<path d="M111.002 167.227C111.368 159.311 114.326 151.736 119.421 145.667L114.964 141.21C108.696 148.47 105.077 157.643 104.699 167.227H111.002Z" fill="#C5DBFC"/>
<path d="M123.03 141.976C129.009 136.595 136.614 133.365 144.637 132.797V126.495C134.943 127.077 125.742 130.968 118.573 137.519L123.03 141.976Z" fill="#C5DBFC"/>
<path d="M149.8 126.495V132.797C157.822 133.365 165.424 136.596 171.4 141.976L175.857 137.519C168.69 130.97 159.492 127.078 149.8 126.495Z" fill="#C5DBFC"/>
<path d="M144.637 205.136C137.018 204.606 129.762 201.675 123.912 196.765L119.455 201.215C126.497 207.297 135.348 210.89 144.637 211.439V205.136Z" fill="#C5DBFC"/>
<path d="M175.009 145.667C180.106 151.734 183.065 159.311 183.428 167.227H189.731C189.355 157.642 185.736 148.469 179.466 141.21L175.009 145.667Z" fill="#C5DBFC"/>
<path d="M183.34 172.389C182.604 180.112 179.403 187.393 174.209 193.155L178.666 197.606C185.027 190.654 188.892 181.782 189.65 172.389H183.34Z" fill="#C5DBFC"/>
<path d="M170.518 196.765C164.671 201.675 157.417 204.606 149.8 205.136V211.439C159.087 210.889 167.935 207.296 174.976 201.215L170.518 196.765Z" fill="#C5DBFC"/>
<path d="M154.698 224.328L153.653 216.533C154.135 216.472 154.617 216.398 155.092 216.316L156.374 224.077C155.817 224.172 155.254 224.254 154.698 224.328ZM159.698 223.419L157.948 215.753C158.416 215.645 158.891 215.536 159.352 215.407L161.346 223.019C160.804 223.161 160.254 223.297 159.698 223.419ZM164.596 222.062L162.147 214.6C162.608 214.451 163.07 214.295 163.504 214.125L166.217 221.52L164.596 222.062ZM169.345 220.251L166.231 213.04L167.588 212.436L170.932 219.552C170.396 219.79 169.881 220.027 169.365 220.251H169.345ZM173.917 218.012L170.139 211.12C170.566 210.882 170.993 210.645 171.414 210.394L175.39 217.178C174.921 217.463 174.433 217.741 173.938 218.012H173.917ZM178.259 215.373L173.897 208.82C174.297 208.549 174.704 208.27 175.098 207.985L179.67 214.383C179.209 214.736 178.748 215.061 178.28 215.373H178.259ZM182.33 212.354L177.37 206.249C177.744 205.943 178.117 205.631 178.483 205.313L183.632 211.262C183.239 211.635 182.805 211.995 182.37 212.354H182.33ZM186.122 208.962L180.64 203.332C180.986 202.992 181.319 202.653 181.658 202.3L187.323 207.762C186.956 208.178 186.57 208.582 186.163 208.976L186.122 208.962ZM189.595 205.265L183.625 200.143C183.944 199.777 184.256 199.404 184.555 199.024L190.661 203.962C190.369 204.41 189.975 204.844 189.636 205.279L189.595 205.265ZM192.723 201.262L186.319 196.703C186.597 196.31 186.868 195.91 187.14 195.509L193.686 199.865C193.415 200.353 193.089 200.815 192.764 201.276L192.723 201.262ZM195.477 196.995L188.693 193.04C188.937 192.619 189.175 192.199 189.405 191.771L196.318 195.523C196.081 196.032 195.796 196.527 195.518 197.009L195.477 196.995ZM197.825 192.504L190.701 189.173C190.905 188.739 191.102 188.298 191.298 187.85L198.517 190.964C198.333 191.493 198.116 192.009 197.865 192.538L197.825 192.504ZM199.758 187.81L192.363 185.15C192.526 184.696 192.682 184.234 192.831 183.793L200.294 186.229C200.152 186.758 199.995 187.294 199.799 187.823L199.758 187.81ZM201.257 182.952L193.686 181.005C193.808 180.537 193.924 180.062 194.032 179.587L201.698 181.331C201.576 181.873 201.44 182.423 201.298 182.966L201.257 182.952ZM202.309 177.979L194.548 176.711C194.622 176.236 194.697 175.761 194.758 175.279L202.553 176.297C202.519 176.874 202.438 177.437 202.35 177.993L202.309 177.979Z" fill="#C5DBFC"/>
<path d="M139.732 113.605L140.777 121.4C140.295 121.468 139.82 121.536 139.339 121.617L138.063 113.843C138.613 113.768 139.176 113.68 139.732 113.605ZM134.732 114.521L136.489 122.187C136.014 122.296 135.546 122.411 135.078 122.533L133.084 114.928C133.626 114.783 134.176 114.648 134.732 114.521ZM129.834 115.878L132.31 123.34C131.849 123.49 131.388 123.652 130.954 123.815L128.24 116.427C128.755 116.237 129.291 116.054 129.834 115.878ZM125.085 117.682L128.213 124.901C127.765 125.091 127.324 125.294 126.856 125.498L123.511 118.381C124.034 118.144 124.549 117.913 125.072 117.682H125.085ZM120.506 119.921L124.285 126.821C123.857 127.051 123.437 127.295 123.016 127.54L119.034 120.756C119.509 120.471 119.997 120.192 120.492 119.948L120.506 119.921ZM116.164 122.56L120.553 129.086C120.146 129.358 119.746 129.636 119.346 129.921L114.773 123.523L116.164 122.56ZM112.094 125.579L117.046 131.685C116.673 131.99 116.3 132.302 115.934 132.621L110.791 126.671C111.191 126.305 111.626 125.939 112.067 125.579H112.094ZM108.295 128.971L113.783 134.609C113.437 134.941 113.105 135.287 112.759 135.633L107.094 130.206C107.46 129.758 107.888 129.351 108.268 128.958L108.295 128.971ZM104.821 132.675L110.791 137.79C110.472 138.164 110.167 138.537 109.862 138.91L103.756 133.978C104.068 133.516 104.428 133.089 104.794 132.662L104.821 132.675ZM101.694 136.671L108.098 141.237C107.82 141.623 107.548 142.024 107.284 142.424L100.73 138.069C101.022 137.587 101.341 137.119 101.667 136.657L101.694 136.671ZM98.9462 140.938L105.73 144.9C105.486 145.314 105.249 145.741 105.018 146.162L98.1117 142.41C98.3899 141.902 98.6341 141.413 98.919 140.925L98.9462 140.938ZM96.5921 145.436L103.715 148.76C103.512 149.194 103.315 149.642 103.125 150.083L95.9001 146.976C96.0968 146.44 96.3546 145.931 96.5649 145.423L96.5921 145.436ZM94.6586 150.124L102.06 152.783C101.89 153.238 101.734 153.699 101.585 154.14L94.1227 151.705C94.2583 151.155 94.4415 150.639 94.6315 150.11L94.6586 150.124ZM93.1593 154.981L100.771 156.955C100.649 157.424 100.534 157.892 100.425 158.373L92.7591 156.63C92.8608 156.06 92.9626 155.517 93.1322 154.968L93.1593 154.981ZM92.0874 159.974L99.8484 161.243C99.767 161.718 99.6992 162.2 99.6313 162.674L91.8364 161.657C91.9111 161.06 91.9925 160.497 92.0874 159.974Z" fill="#C5DBFC"/>
</g>
<g style="mix-blend-mode:soft-light">
<path d="M139.922 88.2666C139.154 88.2666 138.404 88.039 137.766 87.6126C137.128 87.1862 136.631 86.5802 136.337 85.8711C136.043 85.1621 135.966 84.3818 136.116 83.6291C136.266 82.8763 136.635 82.1849 137.178 81.6422C137.721 81.0995 138.412 80.7299 139.165 80.5802C139.918 80.4304 140.698 80.5073 141.407 80.801C142.116 81.0947 142.722 81.5921 143.149 82.2302C143.575 82.8684 143.803 83.6186 143.803 84.3861C143.801 85.4147 143.391 86.4007 142.664 87.1281C141.937 87.8554 140.951 88.2648 139.922 88.2666ZM139.922 80.6006C139.173 80.6006 138.441 80.8226 137.819 81.2386C137.196 81.6545 136.711 82.2458 136.425 82.9375C136.138 83.6292 136.063 84.3903 136.209 85.1246C136.355 85.859 136.716 86.5335 137.245 87.0629C137.775 87.5923 138.449 87.9529 139.183 88.0989C139.918 88.245 140.679 88.17 141.371 87.8835C142.062 87.597 142.654 87.1118 143.07 86.4892C143.486 85.8667 143.708 85.1348 143.708 84.3861C143.708 83.3821 143.309 82.4193 142.599 81.7093C141.889 80.9994 140.926 80.6006 139.922 80.6006Z" fill="#C5DBFC"/>
<path d="M144.345 84.3861H144.094C144.092 83.2801 143.652 82.22 142.87 81.4379C142.088 80.6559 141.028 80.2157 139.922 80.2139V79.9629C141.094 79.9647 142.218 80.4313 143.048 81.2604C143.877 82.0895 144.343 83.2136 144.345 84.3861Z" fill="#C5DBFC"/>
<path d="M139.922 88.8094C138.749 88.8094 137.624 88.3433 136.795 87.5138C135.965 86.6843 135.499 85.5592 135.499 84.3861H135.743C135.743 85.4944 136.184 86.5574 136.967 87.3411C137.751 88.1248 138.814 88.5651 139.922 88.5651V88.8094Z" fill="#C5DBFC"/>
<path d="M137.683 86.3874C137.255 85.911 136.991 85.3092 136.93 84.671H136.381C136.444 85.449 136.764 86.184 137.29 86.7605L137.683 86.3874Z" fill="#C5DBFC"/>
<path d="M136.924 84.2436C136.947 83.5905 137.186 82.9634 137.602 82.4594L137.229 82.0863C136.711 82.6894 136.412 83.4495 136.381 84.2436H136.924Z" fill="#C5DBFC"/>
<path d="M137.921 82.1542C138.413 81.7076 139.042 81.4399 139.705 81.3943V80.8719C138.904 80.9206 138.143 81.2413 137.548 81.781L137.921 82.1542Z" fill="#C5DBFC"/>
<path d="M140.132 80.8719V81.3943C140.798 81.44 141.428 81.7075 141.923 82.1542L142.29 81.781C141.696 81.2394 140.934 80.9184 140.132 80.8719Z" fill="#C5DBFC"/>
<path d="M139.705 87.3847C139.076 87.3442 138.476 87.1069 137.989 86.7063L137.623 87.0794C138.205 87.5826 138.937 87.8805 139.705 87.9274V87.3847Z" fill="#C5DBFC"/>
<path d="M142.222 82.4594C142.638 82.9634 142.877 83.5905 142.901 84.2436H143.423C143.391 83.4495 143.093 82.6894 142.575 82.0863L142.222 82.4594Z" fill="#C5DBFC"/>
<path d="M142.914 84.671C142.854 85.3106 142.588 85.9132 142.154 86.3874L142.527 86.7605C143.051 86.1824 143.37 85.4483 143.437 84.671H142.914Z" fill="#C5DBFC"/>
<path d="M141.849 86.7063C141.363 87.1093 140.762 87.347 140.132 87.3847V87.9071C140.903 87.8601 141.637 87.5623 142.222 87.0591L141.849 86.7063Z" fill="#C5DBFC"/>
<path d="M140.539 88.9721L140.451 88.3276H140.573L140.682 88.9721H140.539ZM140.953 88.8975L140.811 88.2598H140.926L141.089 88.8907L140.953 88.8975ZM141.36 88.7822L141.157 88.1648L141.272 88.1241L141.496 88.7347L141.36 88.7822ZM141.754 88.6329L141.496 88.0359L141.604 87.9884L141.883 88.5786L141.754 88.6329ZM142.134 88.4497L141.822 87.8799L141.923 87.8188L142.256 88.3819L142.134 88.4497ZM142.493 88.2327L142.134 87.6899L142.229 87.6221L142.609 88.1512L142.493 88.2327ZM142.832 87.9816L142.419 87.4728L142.486 87.3846L142.914 87.8731L142.832 87.9816ZM143.144 87.7035L142.69 87.2354C142.723 87.2095 142.752 87.1799 142.778 87.1472L143.246 87.6017L143.144 87.7035ZM143.436 87.3914L142.941 86.9708L143.016 86.8758L143.524 87.2897L143.436 87.3914ZM143.694 87.0658L143.165 86.7062C143.185 86.6708 143.208 86.6368 143.233 86.6045L143.775 86.964L143.694 87.0658ZM143.918 86.7062L143.362 86.3806C143.377 86.3453 143.395 86.3113 143.416 86.2788L143.992 86.5909C143.965 86.6316 143.945 86.7062 143.918 86.7062ZM144.115 86.3399L143.524 86.0617C143.543 86.0269 143.559 85.9906 143.572 85.9532L144.176 86.211L144.115 86.3399ZM144.277 85.9464L143.66 85.7293L143.701 85.614L144.318 85.8175L144.277 85.9464ZM144.4 85.5462L143.769 85.3833C143.772 85.3449 143.772 85.3064 143.769 85.268L144.406 85.4105C144.42 85.458 144.413 85.4987 144.4 85.5462ZM144.488 85.1323L143.809 85.0306V84.9084L144.488 84.9966V85.1323Z" fill="#C5DBFC"/>
<path d="M139.305 79.8L139.386 80.4785H139.271L139.162 79.8408L139.305 79.8ZM138.891 79.8815L139.033 80.5124H138.918L138.748 79.8882L138.891 79.8815ZM138.484 79.99L138.687 80.6074L138.572 80.6481L138.348 80.0375L138.484 79.99ZM138.09 80.1393L138.348 80.7363L138.24 80.7905L137.962 80.2003L138.09 80.1393ZM137.711 80.3292L138.023 80.8991L137.914 80.9601L137.588 80.3971L137.711 80.3292ZM137.351 80.5463L137.711 81.0822L137.616 81.1569L137.236 80.6277L137.351 80.5463ZM137.012 80.7973L137.419 81.2993L137.331 81.3807L136.903 80.8855L137.012 80.7973ZM136.7 81.0755L137.147 81.5436L137.066 81.625L136.598 81.1772L136.7 81.0755ZM136.408 81.3807L136.903 81.8081L136.829 81.8963L136.32 81.4893L136.408 81.3807ZM136.15 81.7132L136.679 82.0931L136.612 82.188L136.069 81.8285L136.15 81.7132ZM135.92 82.0659L136.483 82.3916L136.428 82.5001L135.852 82.188C135.877 82.1488 135.9 82.108 135.92 82.0659ZM135.73 82.4391L136.32 82.7104L136.266 82.8257L135.669 82.568L135.73 82.4391ZM135.567 82.8257L136.177 83.0496C136.163 83.0848 136.152 83.1211 136.143 83.1582L135.519 82.9614C135.538 82.9173 135.554 82.872 135.567 82.8257ZM135.445 83.226L136.076 83.3888C136.072 83.4295 136.072 83.4703 136.076 83.511L135.438 83.3617C135.438 83.3164 135.44 83.2711 135.445 83.226ZM135.356 83.6398L136.035 83.7484V83.8637L135.39 83.7823L135.356 83.6398Z" fill="#C5DBFC"/>
</g>
<path d="M193.774 229.959H100.656V234.05H193.774V229.959Z" fill="#4F008C"/>
<path d="M201.718 183.997H92.7115C92.3826 183.994 92.0577 184.07 91.7635 184.217C91.4693 184.364 91.2141 184.579 91.0189 184.843C90.8236 185.108 90.6938 185.415 90.6402 185.74C90.5865 186.064 90.6105 186.397 90.7102 186.711L103.485 229.993H190.945L203.726 186.711C203.825 186.397 203.847 186.064 203.793 185.739C203.738 185.415 203.608 185.108 203.412 184.843C203.216 184.579 202.961 184.364 202.667 184.217C202.372 184.07 202.047 183.995 201.718 183.997Z" fill="#6C00D3"/>
<path d="M90.8866 187.294C91.064 186.964 91.3273 186.689 91.6486 186.496C91.9698 186.304 92.3371 186.202 92.7115 186.202H201.718C202.093 186.202 202.46 186.304 202.781 186.496C203.103 186.689 203.366 186.964 203.543 187.294L203.726 186.677C203.826 186.36 203.848 186.025 203.792 185.699C203.736 185.372 203.603 185.064 203.404 184.798C203.205 184.533 202.946 184.319 202.648 184.174C202.351 184.029 202.023 183.957 201.691 183.963H92.7115C92.3826 183.96 92.0577 184.036 91.7635 184.183C91.4693 184.33 91.2141 184.545 91.0189 184.81C90.8236 185.074 90.6938 185.381 90.6402 185.706C90.5865 186.031 90.6105 186.363 90.7102 186.677L90.8866 187.294Z" fill="#4F008C"/>
<path d="M117.134 228.263H110.689V231.655H117.134V228.263Z" fill="white"/>
<path d="M183.74 228.263H177.295V231.655H183.74V228.263Z" fill="white"/>
<path d="M147.215 212.069C150.025 212.069 152.303 209.791 152.303 206.981C152.303 204.171 150.025 201.893 147.215 201.893C144.405 201.893 142.127 204.171 142.127 206.981C142.127 209.791 144.405 212.069 147.215 212.069Z" fill="white"/>
<path d="M94.8282 187.26C94.8282 187.26 92.793 180.985 97.2434 179.798C101.694 178.61 110.282 179.201 111.687 179.458C113.091 179.716 113.681 187.091 111.816 187.511C109.95 187.932 95.3167 190.571 94.8282 187.26Z" fill="#FFA9A8"/>
<path d="M111.673 182.009C113.017 181.672 114.398 181.496 115.784 181.487C117.087 181.602 116.917 183.997 116.917 183.997H111.673V182.009Z" fill="#FFA9A8"/>
<g style="mix-blend-mode:soft-light">
<path d="M297.137 47.8265H264.919L254.336 58.4165H199.907L181.373 76.9507V126.352H281.947L297.137 111.156V47.8265Z" fill="#C5DBFC"/>
</g>
<g style="mix-blend-mode:soft-light">
<path d="M231.27 106.299H188.598V119.691H231.27V106.299Z" fill="#C5DBFC"/>
</g>
<g style="mix-blend-mode:soft-light">
<path d="M257.592 106.299H239.255V119.691H257.592V106.299Z" fill="#C5DBFC"/>
</g>
<path d="M297.137 47.8265H264.919L254.336 58.4165H199.907L181.373 76.9507V126.352H281.947L297.137 111.156V47.8265Z" fill="#A961F8" fill-opacity="0.3" stroke="#C28DFF" stroke-miterlimit="10"/>
<path d="M218.435 58.4165H199.907L181.373 76.9507V92.0792" stroke="#C28DFF" stroke-width="4" stroke-miterlimit="10"/>
<path d="M268.867 126.352H281.947L297.137 111.156V94.2908" stroke="#C28DFF" stroke-width="4" stroke-miterlimit="10"/>
<path d="M239.377 46.6597L231.27 54.7667H235.612L243.726 46.6597H239.377Z" fill="#C28DFF"/>
<path d="M246.643 46.6597L238.536 54.7667H242.877L250.991 46.6597H246.643Z" fill="#C28DFF"/>
<path d="M253.908 46.6597L245.794 54.7667H250.143L258.257 46.6597H253.908Z" fill="#C28DFF"/>
<path d="M224.852 46.6597L216.738 54.7667H221.087L229.194 46.6597H224.852Z" fill="#6C00D3"/>
<path d="M232.111 46.6597L224.004 54.7667H228.353L236.459 46.6597H232.111Z" fill="#6C00D3"/>
<g style="mix-blend-mode:soft-light">
<path d="M211.149 94.7861C208.523 94.7861 205.956 94.0075 203.773 92.5486C201.589 91.0898 199.888 89.0163 198.883 86.5903C197.878 84.1644 197.615 81.4949 198.127 78.9195C198.639 76.3442 199.904 73.9785 201.761 72.1218C203.617 70.265 205.983 69.0005 208.558 68.4883C211.134 67.976 213.803 68.2389 216.229 69.2438C218.655 70.2486 220.729 71.9503 222.188 74.1336C223.646 76.3169 224.425 78.8838 224.425 81.5096C224.421 85.0297 223.022 88.4045 220.532 90.8936C218.043 93.3826 214.669 94.7825 211.149 94.7861ZM211.149 68.5452C208.584 68.5452 206.078 69.3056 203.946 70.7301C201.814 72.1547 200.152 74.1794 199.171 76.5484C198.19 78.9173 197.933 81.524 198.433 84.0389C198.933 86.5537 200.168 88.8638 201.981 90.6769C203.794 92.49 206.104 93.7247 208.619 94.2249C211.134 94.7252 213.741 94.4684 216.11 93.4872C218.479 92.5059 220.503 90.8443 221.928 88.7123C223.353 86.5803 224.113 84.0738 224.113 81.5096C224.109 78.0724 222.742 74.7769 220.312 72.3464C217.881 69.9159 214.586 68.5488 211.149 68.5452Z" fill="#C5DBFC"/>
<path d="M226.297 81.5097H225.449C225.444 77.7191 223.935 74.0855 221.254 71.4058C218.573 68.7261 214.939 67.2192 211.148 67.2156V66.354C215.166 66.3576 219.018 67.9557 221.859 70.7974C224.699 73.639 226.295 77.4919 226.297 81.5097Z" fill="#C5DBFC"/>
<path d="M211.148 96.6518C207.134 96.6482 203.284 95.0517 200.445 92.2128C197.606 89.3738 196.01 85.5245 196.006 81.5096H196.854C196.858 85.2996 198.365 88.9332 201.045 91.6131C203.725 94.293 207.359 95.8001 211.148 95.8037V96.6518Z" fill="#C5DBFC"/>
<path d="M211.149 75.0037C209.862 75.0037 208.604 75.3852 207.534 76.1001C206.464 76.815 205.63 77.8311 205.138 79.0199C204.645 80.2087 204.517 81.5168 204.768 82.7789C205.019 84.0409 205.638 85.2001 206.548 86.11C207.458 87.0199 208.617 87.6395 209.879 87.8905C211.141 88.1416 212.449 88.0127 213.638 87.5203C214.827 87.0279 215.843 86.194 216.558 85.1241C217.273 84.0542 217.654 82.7964 217.654 81.5096C217.653 79.7847 216.967 78.1309 215.747 76.9112C214.527 75.6915 212.873 75.0055 211.149 75.0037ZM211.149 87.0115C210.061 87.0102 208.998 86.6864 208.094 86.081C207.19 85.4756 206.486 84.6159 206.07 83.6104C205.655 82.6049 205.547 81.4989 205.76 80.4321C205.973 79.3653 206.498 78.3856 207.267 77.6168C208.037 76.848 209.017 76.3247 210.084 76.1129C211.152 75.9012 212.257 76.0105 213.262 76.4272C214.267 76.8438 215.126 77.549 215.73 78.4536C216.335 79.3583 216.657 80.4217 216.657 81.5096C216.655 82.9694 216.074 84.3689 215.041 85.4005C214.008 86.4321 212.608 87.0115 211.149 87.0115Z" fill="#C5DBFC"/>
<path d="M211.148 72.0118C209.27 72.0118 207.433 72.5689 205.871 73.6125C204.31 74.6561 203.092 76.1395 202.373 77.8749C201.655 79.6104 201.466 81.5201 201.833 83.3625C202.199 85.2049 203.104 86.8972 204.432 88.2255C205.76 89.5538 207.453 90.4583 209.295 90.8248C211.138 91.1913 213.047 91.0032 214.783 90.2843C216.518 89.5655 218.002 88.3481 219.045 86.7862C220.089 85.2243 220.646 83.388 220.646 81.5096C220.646 78.9906 219.645 76.5748 217.864 74.7937C216.083 73.0125 213.667 72.0118 211.148 72.0118ZM211.148 89.5487C209.558 89.5487 208.004 89.0772 206.682 88.1939C205.36 87.3105 204.329 86.055 203.721 84.586C203.112 83.1171 202.953 81.5007 203.263 79.9412C203.574 78.3818 204.339 76.9493 205.464 75.825C206.588 74.7007 208.02 73.9351 209.58 73.6249C211.139 73.3147 212.756 73.4739 214.225 74.0824C215.694 74.6908 216.949 75.7212 217.832 77.0433C218.716 78.3653 219.187 79.9196 219.187 81.5096C219.185 83.6411 218.338 85.6849 216.831 87.1921C215.323 88.6994 213.28 89.5469 211.148 89.5487Z" fill="#C5DBFC"/>
<path d="M203.496 88.3683C202.025 86.7338 201.118 84.6692 200.911 82.4797H199.12C199.338 85.1423 200.433 87.6573 202.234 89.6302L203.496 88.3683Z" fill="#C5DBFC"/>
<path d="M200.884 81.0144C200.991 78.7729 201.83 76.6284 203.272 74.9087L202.01 73.6469C200.234 75.7054 199.209 78.3048 199.1 81.0212L200.884 81.0144Z" fill="#C5DBFC"/>
<path d="M204.296 73.8572C205.986 72.3359 208.134 71.4216 210.402 71.2589V69.4679C207.654 69.6331 205.046 70.7372 203.014 72.5954L204.296 73.8572Z" fill="#C5DBFC"/>
<path d="M211.881 69.4679V71.2589C214.148 71.4216 216.297 72.3359 217.987 73.8572L219.248 72.5954C217.222 70.7415 214.622 69.6377 211.881 69.4679Z" fill="#C5DBFC"/>
<path d="M210.422 91.7604C208.261 91.6144 206.203 90.7826 204.547 89.386L203.279 90.6546C205.279 92.3756 207.789 93.3932 210.422 93.5514V91.7604Z" fill="#C5DBFC"/>
<path d="M219.031 74.9019C220.473 76.6216 221.312 78.7662 221.419 81.0076H223.217C223.108 78.2912 222.082 75.6919 220.307 73.6333L219.031 74.9019Z" fill="#C5DBFC"/>
<path d="M221.392 82.4797C221.182 84.6697 220.274 86.7342 218.801 88.3683L220.069 89.6302C221.871 87.6583 222.964 85.1423 223.177 82.4797H221.392Z" fill="#C5DBFC"/>
<path d="M217.79 89.4199C216.134 90.8165 214.076 91.6483 211.915 91.7944V93.5854C214.547 93.4286 217.055 92.4108 219.052 90.6885L217.79 89.4199Z" fill="#C5DBFC"/>
<path d="M213.272 97.2012L212.973 94.9964L213.387 94.9353L213.746 97.1334L213.272 97.2012ZM214.689 96.9434L214.194 94.7725L214.595 94.6775L215.158 96.8349L214.689 96.9434ZM216.08 96.5635L215.402 94.4401L215.795 94.3044L216.555 96.4007L216.08 96.5635ZM217.437 96.0479L216.548 94.0127L216.928 93.8363L217.871 95.8715L217.437 96.0479ZM218.733 95.4102L217.654 93.4903L218.014 93.2868L219.14 95.2135L218.733 95.4102ZM219.968 94.664L218.712 92.8119L219.052 92.5813L220.354 94.3926L219.968 94.664ZM221.121 93.8092L219.717 92.0792L220.035 91.8146L221.494 93.4971L221.121 93.8092ZM222.199 92.8526L220.646 91.2516L220.931 90.9666L222.539 92.5134C222.423 92.6287 222.308 92.7373 222.193 92.8526H222.199ZM223.183 91.8011L221.494 90.3493L221.752 90.0372L223.488 91.4347L223.183 91.8011ZM224.072 90.6681L222.254 89.3792L222.484 89.04L224.343 90.2747L224.072 90.6681ZM224.852 89.4606L222.925 88.3344L223.129 87.9748L225.083 89.04L224.852 89.4606ZM225.53 88.1852L223.495 87.2422C223.556 87.1201 223.611 86.9911 223.665 86.869L225.7 87.751C225.639 87.8934 225.578 88.063 225.51 88.1852H225.53ZM226.08 86.8283L223.984 86.0753C224.024 85.9464 224.072 85.8175 224.113 85.6818L226.236 86.3602C226.161 86.557 226.114 86.7062 226.06 86.8555L226.08 86.8283ZM226.501 85.4715L224.343 84.9152L224.445 84.5082L226.616 85.0034C226.562 85.1662 226.521 85.3494 226.48 85.4783L226.501 85.4715ZM226.799 84.0604L224.601 83.7009L224.662 83.2938L226.867 83.5855C226.826 83.7551 226.806 83.9112 226.779 84.0672L226.799 84.0604Z" fill="#C5DBFC"/>
<path d="M209.032 65.818L209.323 68.0228L208.916 68.0839L208.557 65.8858L209.032 65.818ZM207.614 66.0758L208.109 68.2467L207.709 68.3417L207.146 66.1911L207.614 66.0758ZM206.257 66.4625L206.935 68.5791L206.549 68.7148L205.789 66.6185L206.257 66.4625ZM204.9 66.9713L205.789 69.0065L205.409 69.1761L204.459 67.1409L204.9 66.9713ZM203.604 67.609L204.676 69.5628L204.317 69.7663L203.184 67.8397L203.604 67.609ZM202.37 68.3553L203.618 70.2073L203.272 70.4448L201.976 68.6266L202.37 68.3553ZM201.216 69.21L202.621 70.94L202.302 71.2046L200.83 69.5221L201.216 69.21ZM200.138 70.1666L201.691 71.7677L201.4 72.0594L199.799 70.5126L200.138 70.1666ZM199.154 71.2181L200.843 72.6699L200.579 72.9888L198.794 71.5845C198.908 71.4624 199.018 71.3403 199.127 71.2181H199.154ZM198.265 72.3511L200.083 73.6468C200.002 73.7554 199.927 73.8707 199.853 73.9793L197.994 72.7446C198.055 72.6157 198.116 72.4596 198.238 72.3511H198.265ZM197.438 73.5586L199.364 74.6848L199.161 75.0444L197.207 73.9793L197.438 73.5586ZM196.759 74.8341L198.794 75.7771C198.733 75.8992 198.679 76.0281 198.625 76.1502L196.59 75.2683C196.657 75.1258 196.759 74.9765 196.793 74.8341H196.759ZM196.21 76.1909L198.306 76.9439C198.259 77.0728 198.218 77.2017 198.17 77.3374L196.054 76.659C196.135 76.469 196.189 76.313 196.244 76.1637L196.21 76.1909ZM195.782 77.5477L197.946 78.104C197.906 78.2397 197.879 78.3754 197.845 78.5111L195.674 78.0158C195.742 77.8869 195.776 77.6969 195.816 77.5409L195.782 77.5477ZM195.491 78.9588L197.689 79.3183L197.628 79.7254L195.416 79.4337C195.47 79.2437 195.497 79.108 195.525 78.952L195.491 78.9588Z" fill="#C5DBFC"/>
</g>
<g style="mix-blend-mode:soft-light">
<path d="M286.669 83.2599H239.255V85.9667H286.669V83.2599Z" fill="#C5DBFC"/>
</g>
<g style="mix-blend-mode:soft-light">
<path d="M286.669 88.599H239.255V91.3059H286.669V88.599Z" fill="#C5DBFC"/>
</g>
<g style="mix-blend-mode:soft-light">
<path d="M286.669 93.9448H239.255V96.6517H286.669V93.9448Z" fill="#C5DBFC"/>
</g>
<g style="mix-blend-mode:soft-light">
<path d="M272.131 64.936H257.592V67.6429H272.131V64.936Z" fill="#C5DBFC"/>
</g>
<g style="mix-blend-mode:soft-light">
<path d="M286.676 70.282H257.592V72.9888H286.676V70.282Z" fill="#C5DBFC"/>
</g>
<g style="mix-blend-mode:soft-light">
<path d="M286.676 75.621H257.592V78.3278H286.676V75.621Z" fill="#C5DBFC"/>
</g>
<g style="mix-blend-mode:soft-light">
<path d="M272.131 106.299H263.969V109.006H272.131V106.299Z" fill="#C5DBFC"/>
</g>
<g style="mix-blend-mode:soft-light">
<path d="M280.299 111.645H263.969V114.351H280.299V111.645Z" fill="#C5DBFC"/>
</g>
<g style="mix-blend-mode:soft-light">
<path d="M280.299 116.984H263.969V119.69H280.299V116.984Z" fill="#C5DBFC"/>
</g>
<g style="mix-blend-mode:soft-light">
<path d="M286.669 99.2839H239.255V101.991H286.669V99.2839Z" fill="#C5DBFC"/>
</g>
<g style="mix-blend-mode:soft-light">
<path d="M246.799 79.1758C250.965 79.1758 254.343 75.7983 254.343 71.6319C254.343 67.4655 250.965 64.088 246.799 64.088C242.632 64.088 239.255 67.4655 239.255 71.6319C239.255 75.7983 242.632 79.1758 246.799 79.1758Z" fill="#C5DBFC"/>
</g>
<g style="mix-blend-mode:soft-light">
<path d="M270.346 54.8821C271.095 54.8821 271.703 54.2746 271.703 53.5253C271.703 52.7759 271.095 52.1685 270.346 52.1685C269.597 52.1685 268.989 52.7759 268.989 53.5253C268.989 54.2746 269.597 54.8821 270.346 54.8821Z" fill="#C5DBFC"/>
<path d="M278.406 54.8821C279.155 54.8821 279.762 54.2746 279.762 53.5253C279.762 52.7759 279.155 52.1685 278.406 52.1685C277.656 52.1685 277.049 52.7759 277.049 53.5253C277.049 54.2746 277.656 54.8821 278.406 54.8821Z" fill="#C5DBFC"/>
<path d="M286.458 54.8821C287.208 54.8821 287.815 54.2746 287.815 53.5253C287.815 52.7759 287.208 52.1685 286.458 52.1685C285.709 52.1685 285.102 52.7759 285.102 53.5253C285.102 54.2746 285.709 54.8821 286.458 54.8821Z" fill="#C5DBFC"/>
</g>
<g style="mix-blend-mode:soft-light">
<path d="M99.9908 117.771V85.5529L89.4076 74.9697V20.5341L70.8666 2H21.4648V102.574L36.6612 117.771H99.9908Z" fill="#C5DBFC"/>
</g>
<g style="mix-blend-mode:soft-light">
<path d="M42.7671 67.4869V54.6989H29.3753V67.4869H42.7671Z" fill="#C5DBFC"/>
</g>
<g style="mix-blend-mode:soft-light">
<path d="M75.9414 31.0496H28.5273V33.7564H75.9414V31.0496Z" fill="#C5DBFC"/>
</g>
<g style="mix-blend-mode:soft-light">
<path d="M75.9414 36.3954H28.5273V39.1022H75.9414V36.3954Z" fill="#C5DBFC"/>
</g>
<g style="mix-blend-mode:soft-light">
<path d="M75.9414 41.7345H28.5273V44.4413H75.9414V41.7345Z" fill="#C5DBFC"/>
</g>
<g style="mix-blend-mode:soft-light">
<path d="M61.4031 12.7324H46.8647V15.4393H61.4031V12.7324Z" fill="#C5DBFC"/>
</g>
<g style="mix-blend-mode:soft-light">
<path d="M75.9482 18.0715H46.8647V20.7784H75.9482V18.0715Z" fill="#C5DBFC"/>
</g>
<g style="mix-blend-mode:soft-light">
<path d="M75.9482 23.4174H46.8647V26.1242H75.9482V23.4174Z" fill="#C5DBFC"/>
</g>
<g style="mix-blend-mode:soft-light">
<path d="M58.4045 54.0951H47.2446V56.8019H58.4045V54.0951Z" fill="#C5DBFC"/>
</g>
<g style="mix-blend-mode:soft-light">
<path d="M69.5643 59.4342H47.2446V62.1411H69.5643V59.4342Z" fill="#C5DBFC"/>
</g>
<g style="mix-blend-mode:soft-light">
<path d="M69.5643 64.7732H47.2446V67.48H69.5643V64.7732Z" fill="#C5DBFC"/>
</g>
<g style="mix-blend-mode:soft-light">
<path d="M75.9414 47.0803H28.5273V49.7872H75.9414V47.0803Z" fill="#C5DBFC"/>
</g>
<g style="mix-blend-mode:soft-light">
<path d="M84.1909 91.428H28.5273V92.7848H84.1909V91.428Z" fill="#C5DBFC"/>
</g>
<g style="mix-blend-mode:soft-light">
<path d="M84.1909 94.1008H28.5273V95.4576H84.1909V94.1008Z" fill="#C5DBFC"/>
</g>
<g style="mix-blend-mode:soft-light">
<path d="M36.0713 26.9722C40.2376 26.9722 43.6152 23.5947 43.6152 19.4283C43.6152 15.2619 40.2376 11.8844 36.0713 11.8844C31.9049 11.8844 28.5273 15.2619 28.5273 19.4283C28.5273 23.5947 31.9049 26.9722 36.0713 26.9722Z" fill="#C5DBFC"/>
</g>
<path d="M99.9908 117.771V85.5529L89.4076 74.9697V20.5341L70.8666 2H21.4648V102.574L36.6612 117.771H99.9908Z" fill="#A961F8" fill-opacity="0.3" stroke="#C28DFF" stroke-miterlimit="10"/>
<path d="M89.4077 39.0615V20.5341L70.8668 2H55.7383" stroke="#C28DFF" stroke-width="4" stroke-miterlimit="10"/>
<path d="M21.4648 89.4945V102.574L36.6612 117.771H53.5265" stroke="#C28DFF" stroke-width="4" stroke-miterlimit="10"/>
<path d="M101.165 60.004L93.0508 51.897V56.2456L101.165 64.3526V60.004Z" fill="#C28DFF"/>
<path d="M101.165 67.2698L93.0508 59.1628V63.5114L101.165 71.6184V67.2698Z" fill="#C28DFF"/>
<path d="M101.165 74.5356L93.0508 66.4286V70.7704L101.165 78.8842V74.5356Z" fill="#C28DFF"/>
<path d="M101.165 45.4793L93.0508 37.3655V41.7141L101.165 49.8279V45.4793Z" fill="#6C00D3"/>
<path d="M101.165 52.745L93.0508 44.6312V48.9798L101.165 57.0868V52.745Z" fill="#6C00D3"/>
<g style="mix-blend-mode:soft-light">
<path d="M92.9354 92.3302C93.6848 92.3302 94.2923 91.7227 94.2923 90.9734C94.2923 90.224 93.6848 89.6166 92.9354 89.6166C92.1861 89.6166 91.5786 90.224 91.5786 90.9734C91.5786 91.7227 92.1861 92.3302 92.9354 92.3302Z" fill="#C5DBFC"/>
<path d="M92.9354 100.39C93.6848 100.39 94.2923 99.7822 94.2923 99.0328C94.2923 98.2835 93.6848 97.676 92.9354 97.676C92.1861 97.676 91.5786 98.2835 91.5786 99.0328C91.5786 99.7822 92.1861 100.39 92.9354 100.39Z" fill="#C5DBFC"/>
<path d="M92.9354 108.442C93.6848 108.442 94.2923 107.835 94.2923 107.086C94.2923 106.336 93.6848 105.729 92.9354 105.729C92.1861 105.729 91.5786 106.336 91.5786 107.086C91.5786 107.835 92.1861 108.442 92.9354 108.442Z" fill="#C5DBFC"/>
</g>
<g style="mix-blend-mode:soft-light">
<path d="M44.1106 75.9602H42.4214V86.2245H44.1106V75.9602Z" fill="#C5DBFC"/>
<path d="M40.9422 79.8882H28.9072V82.2965H40.9422V79.8882Z" fill="#C5DBFC"/>
<path d="M27.659 79.0876H25.7798V83.097H27.659V79.0876Z" fill="#C5DBFC"/>
</g>
<g style="mix-blend-mode:soft-light">
<path d="M45.2095 78.7688L75.7786 77.3306L80.5953 80.7972H45.2095V78.7688Z" fill="#C5DBFC"/>
</g>
<g style="mix-blend-mode:soft-light">
<path d="M45.2095 83.4159L75.7786 84.8473L80.5953 81.3875H45.2095V83.4159Z" fill="#C5DBFC"/>
</g>
<g style="mix-blend-mode:soft-light">
<path d="M62.6376 100.39H0V134.568H62.6376V100.39Z" fill="#C5DBFC"/>
</g>
<g style="mix-blend-mode:soft-light">
<path d="M87.2842 123.754H42.6245V148.123H87.2842V123.754Z" fill="#C5DBFC"/>
</g>
<g style="mix-blend-mode:soft-light">
<path d="M139.705 12.5289H81.2397V46.7072H139.705V12.5289Z" fill="#C5DBFC"/>
</g>
<g style="mix-blend-mode:soft-light">
<path d="M267.286 41.0356H204.649V81.5096H267.286V41.0356Z" fill="#C5DBFC"/>
</g>
<g style="mix-blend-mode:soft-light">
<path d="M307.32 103.633H262.145V151.976H307.32V103.633Z" fill="#C5DBFC"/>
</g>
<g style="mix-blend-mode:soft-light">
<path d="M164.352 35.8933H119.692V60.2618H164.352V35.8933Z" fill="#C5DBFC"/>
</g>
<path d="M19.918 134.236H72.3522V117.771" stroke="#C28DFF" stroke-miterlimit="10"/>
<path d="M174.548 49.5023L176.787 51.7343C178.27 50.2549 180.279 49.4241 182.373 49.4241C184.468 49.4241 186.477 50.2549 187.96 51.7343L190.192 49.5023C189.165 48.4746 187.946 47.6593 186.603 47.1031C185.261 46.5469 183.823 46.2606 182.37 46.2606C180.917 46.2606 179.478 46.5469 178.136 47.1031C176.794 47.6593 175.575 48.4746 174.548 49.5023Z" fill="#C28DFF"/>
<path d="M170.077 45.0315L172.316 47.2702C174.986 44.6085 178.603 43.1139 182.373 43.1139C186.144 43.1139 189.76 44.6085 192.431 47.2702L194.663 45.0315C193.049 43.4167 191.132 42.1358 189.023 41.2619C186.914 40.3879 184.653 39.9381 182.37 39.9381C180.087 39.9381 177.826 40.3879 175.717 41.2619C173.608 42.1358 171.691 43.4167 170.077 45.0315Z" fill="#C28DFF"/>
<path d="M182.37 56.2118C183.607 56.2118 184.609 55.2094 184.609 53.973C184.609 52.7366 183.607 51.7343 182.37 51.7343C181.134 51.7343 180.131 52.7366 180.131 53.973C180.131 55.2094 181.134 56.2118 182.37 56.2118Z" fill="#C28DFF"/>
<defs>
<linearGradient id="paint0_linear_562_97" x1="147.215" y1="94.3315" x2="147.215" y2="234.064" gradientUnits="userSpaceOnUse">
<stop stop-color="white" stop-opacity="0"/>
<stop offset="0.1" stop-color="#FAFFFF" stop-opacity="0.02"/>
<stop offset="0.22" stop-color="#EDFFFF" stop-opacity="0.08"/>
<stop offset="0.36" stop-color="#D6FEFF" stop-opacity="0.19"/>
<stop offset="0.51" stop-color="#B7FDFF" stop-opacity="0.33"/>
<stop offset="0.67" stop-color="#8EFCFF" stop-opacity="0.52"/>
<stop offset="0.83" stop-color="#5DFBFF" stop-opacity="0.74"/>
<stop offset="1" stop-color="#25FAFF"/>
</linearGradient>
</defs>
</svg>
