<svg width="303" height="224" viewBox="0 0 303 224" fill="none" xmlns="http://www.w3.org/2000/svg">
<path d="M132.041 216.795C153.636 216.795 171.142 216.03 171.142 215.086C171.142 214.142 153.636 213.377 132.041 213.377C110.446 213.377 92.9399 214.142 92.9399 215.086C92.9399 216.03 110.446 216.795 132.041 216.795Z" fill="#941E7F"/>
<path d="M134.81 217.73C125.252 217.933 115.688 217.876 106.13 217.497C104.571 217.419 75.0128 216.187 87.8127 214.037C103.246 212.208 118.852 212.177 134.368 212.302C139.116 212.437 144.067 212.375 148.706 212.66C143.927 212.697 139.148 212.686 134.368 212.66C124.961 212.66 115.106 212.852 105.709 213.138C99.7503 213.367 93.7608 213.512 87.8439 214.239C80.0517 215.278 89.6517 216.182 91.8335 216.369C106.098 217.408 120.613 217.263 134.81 217.715V217.73Z" fill="#971B80"/>
<path d="M151.755 212.676C157.646 212.676 163.537 212.816 169.418 213.263C171.262 213.419 185.381 214.588 176.638 216.063C163.495 217.819 150.176 217.902 136.94 217.72C149.007 217.06 164.633 217.253 176.607 215.886C189.22 213.866 152.711 213.066 151.76 212.676H151.755Z" fill="#971B80"/>
<path d="M142.322 219.065C138.544 219.342 134.753 219.382 130.971 219.185C124.665 219.185 118.348 219.408 112.052 218.858C112.045 218.858 112.038 218.855 112.033 218.85C112.028 218.845 112.026 218.839 112.026 218.832C112.026 218.825 112.028 218.818 112.033 218.813C112.038 218.808 112.045 218.806 112.052 218.806C118.363 218.437 124.659 218.852 130.971 219.013C134.701 218.941 138.763 218.645 142.322 219.065Z" fill="#891976"/>
<path d="M169.838 212.188C174.618 212.395 179.412 212.655 184.093 213.746C184.805 213.943 187.36 214.587 186.135 215.621C184.95 216.328 183.537 216.452 182.218 216.728C170.39 218.493 158.433 219.247 146.478 218.982C154.914 218.463 166.768 218.052 175.09 217.424C177.469 217.266 179.838 216.98 182.187 216.567C183.357 216.389 184.502 216.068 185.594 215.611C185.838 215.497 186.114 215.299 186.114 215.143C186.114 214.987 185.875 214.811 185.631 214.702C185.095 214.474 184.538 214.3 183.968 214.182C179.371 213.143 174.327 212.904 169.818 212.219L169.838 212.188Z" fill="#891976"/>
<path d="M99.4178 218.333C92.6022 217.969 85.6568 217.881 79.0023 216.193C78.4516 215.975 77.5062 215.762 77.5425 214.998C77.6464 214.582 77.9737 214.478 78.2854 214.276C79.6388 213.766 81.0476 213.417 82.4828 213.237C91.5321 212.001 100.665 211.762 109.766 211.284C123.433 210.717 137.122 210.624 150.805 211.133C155.355 211.32 159.973 211.46 164.482 211.876C159.953 211.782 155.35 211.575 150.794 211.512C132.576 211.31 114.327 211.06 96.1399 212.172C91.5996 212.489 87.0542 212.915 82.5659 213.658C81.1746 213.846 79.8097 214.195 78.4984 214.697C78.2698 214.801 78.0204 214.993 78.0152 215.086C78.01 215.18 78.1815 215.346 78.41 215.455C79.709 215.978 81.0686 216.336 82.4568 216.52C88.0204 217.471 93.9736 217.751 99.4333 218.338L99.4178 218.333Z" fill="#891976"/>
<path d="M178.654 211.751C182.253 211.9 185.835 212.32 189.371 213.008C191.22 213.414 197.683 214.946 192.935 216.754C190.364 217.604 187.718 218.206 185.033 218.551C179.698 219.322 174.319 219.753 168.929 219.84C175.023 218.998 184.192 218.442 190.296 217.242C203.646 214.291 181.277 212.458 178.67 211.741L178.654 211.751Z" fill="#7D186B"/>
<path d="M113.179 210.188C123.496 209.606 133.818 209.891 144.145 209.917C154.475 209.843 164.8 210.34 175.075 211.408C175.106 211.408 175.101 211.466 175.075 211.46C166.155 210.998 153.205 210.52 144.145 210.182C133.875 209.72 123.304 210.645 113.184 210.182L113.179 210.188Z" fill="#7D186B"/>
<path d="M69.4802 215.408C69.6413 214.136 72.7737 213.517 73.8594 213.206C77.1269 212.411 80.4776 212.167 83.8126 211.85C92.1243 210.93 100.478 210.162 108.857 210.323C108.888 210.323 108.888 210.369 108.857 210.375C99.262 211.32 88.3893 211.102 78.8724 212.759C76.3962 213.085 73.9416 213.559 71.5218 214.177C70.8413 214.442 69.7504 214.624 69.5322 215.408C69.5322 215.415 69.5294 215.422 69.5246 215.427C69.5197 215.432 69.5131 215.434 69.5062 215.434C69.4993 215.434 69.4927 215.432 69.4878 215.427C69.483 215.422 69.4802 215.415 69.4802 215.408Z" fill="#7D186B"/>
<path d="M161.475 220.239C148.706 221.304 130.114 220.967 117.127 220.837C106.036 220.702 94.9296 220.317 83.9062 219.065C80.2224 218.696 76.5674 218.08 72.966 217.221C72.9348 217.221 72.966 217.159 72.966 217.169C87.5114 219.736 102.389 219.86 117.122 220.551C131.849 221.071 146.883 220.302 161.464 220.239H161.475Z" fill="#7D186B"/>
<path d="M167.47 209.575C176.67 209.969 185.885 210.577 194.96 212.214C198.166 212.78 209.314 215.247 200.763 218.146C196.347 219.507 191.76 220.115 187.199 220.743C173.49 222.478 159.667 223.123 145.854 223.278C141.251 223.31 136.587 223.388 132.015 223.227C136.592 223.065 141.246 223.055 145.844 222.904C159.636 222.447 173.444 221.943 187.168 220.463C192.254 219.788 197.558 219.351 202.295 217.346C211.646 212.401 169.516 210.001 167.49 209.585L167.47 209.575Z" fill="#761861"/>
<path d="M91.0022 209.933C99.8333 209.019 108.711 208.759 117.584 208.707C132.363 208.354 147.194 208.146 161.927 209.284C161.958 209.284 161.958 209.341 161.927 209.336C148.197 209.149 131.199 208.639 117.589 208.889C111.615 209.039 97.0022 209.871 91.0022 209.928V209.933Z" fill="#761861"/>
<path d="M110.732 222.936C101.368 222.908 92.0124 222.372 82.7063 221.33C79.7868 220.878 58.3739 219.575 60.1246 215.429C62.2752 212.182 78.1297 210.956 82.3842 210.676C78.192 211.393 62.8674 212.754 60.6129 215.678C59.8648 218.011 71.5791 219.652 73.444 220.011C84.1089 221.814 99.9894 222.016 110.732 222.936Z" fill="#761861"/>
<path d="M128.831 223.258C127.522 223.478 126.186 223.478 124.877 223.258C122.68 223.258 120.4 223.652 118.259 223.086C120.441 222.598 122.675 223.003 124.877 223.086C126.192 222.899 127.529 222.936 128.831 223.195C128.838 223.195 128.844 223.198 128.849 223.203C128.854 223.208 128.857 223.214 128.857 223.221C128.857 223.228 128.854 223.235 128.849 223.24C128.844 223.244 128.838 223.247 128.831 223.247V223.258Z" fill="#761861"/>
<path d="M168.228 50.7284C168.228 50.7284 166.025 46.7544 166.498 45.8609C166.971 44.9674 169.241 48.7908 169.241 48.7908C169.241 48.7908 176.664 46.6142 177.371 47.2999C178.077 47.9856 173.423 49.2167 173.423 49.2167C173.423 49.2167 173.688 50.8687 171.298 51.5804" fill="#FACEBB"/>
<path d="M150.29 51.705C153.376 53.3361 160.737 68.1049 160.737 68.1049C160.737 68.1049 166.082 56.3075 168.062 50.4426L171.75 51.4348C171.75 51.4348 168.633 79.0815 165.402 81.6165C162.171 84.1516 149.412 71.9283 149.412 71.9283" fill="#FACEBB"/>
<path d="M110.005 90.0737C111.11 90.9583 112.152 91.92 113.122 92.9516C114.161 94.1672 113.189 98.2036 111.87 99.1075C110.55 100.011 108.109 98.2295 107.896 97.3984C107.683 96.5672 110.727 96.9932 110.727 96.9932C110.727 96.9932 109.054 95.4347 108.748 94.2607" fill="#FACEBB"/>
<path d="M111.511 51.6375C111.511 51.6375 90.4099 62.4166 87.3035 71.5543C88.0463 82.7594 108.909 94.6815 108.909 94.6815L110.005 90.0737C110.005 90.0737 99.0956 74.6452 98.919 72.9672C98.7424 71.2893 111.594 66.214 111.594 66.214L111.511 51.6375Z" fill="#FACEBB"/>
<path d="M112.171 66.7907L108.841 68.1466C105.865 64.8421 103.315 61.1771 101.252 57.2375C101.252 57.2375 108.005 52.9206 110.083 52.1051C112.161 51.2895 117.22 50.0895 117.22 50.0895" fill="white"/>
<path d="M145.418 194.162L144.649 208.297H141.308L140.306 197.881" fill="#FACEBB"/>
<path d="M144.649 208.292C146.713 210.628 148.909 212.844 151.226 214.93H139.246L141.324 208.292H144.649Z" fill="white"/>
<path d="M116.036 194.052L116.8 208.188H120.14L121.148 197.772" fill="#FACEBB"/>
<path d="M112.69 97.4763H148.893C148.893 97.4763 149.049 137.902 145.257 198.338H140.441C140.441 198.338 134.405 138.681 131.225 107.481L129.314 107.835C129.314 107.835 126.976 130.796 121.096 198.338H116.244C116.244 198.338 112.524 124.988 112.69 97.4763Z" fill="#43C9D7"/>
<path d="M131.787 97.8711L132.737 105.242L127.979 106.188" stroke="white" stroke-width="0.5" stroke-miterlimit="10" stroke-linecap="round"/>
<path d="M141.548 99.4971C141.548 99.4971 142.54 103.502 147.439 103.549" stroke="white" stroke-width="0.5" stroke-miterlimit="10" stroke-linecap="round"/>
<path d="M121.012 99.4971C121.012 99.4971 120.02 103.502 115.122 103.549" stroke="white" stroke-width="0.5" stroke-miterlimit="10" stroke-linecap="round"/>
<path d="M115.87 198.338H121.407L121.651 196.473L115.662 196.094L115.87 198.338Z" fill="#92F2F7"/>
<path d="M145.61 198.338H140.072L139.828 196.473L145.818 196.094L145.61 198.338Z" fill="#92F2F7"/>
<path d="M150.488 51.8349C149.272 50.8635 135.854 48.1985 131.854 47.4921V47.3154L131.335 47.4037L130.815 47.3154V47.4921C126.81 48.2037 112.145 50.8635 110.924 51.8349C109.511 52.9674 111.558 97.9386 111.558 97.9386H150.077C150.077 97.9386 151.885 52.9674 150.488 51.8349Z" fill="white"/>
<path d="M116.8 208.188C116.8 208.188 114.519 210.905 111.735 214.827H123.714L120.14 208.188H116.8Z" fill="white"/>
<path d="M131.797 56.0843C130.765 56.0843 129.775 55.6743 129.046 54.9447C128.316 54.215 127.906 53.2253 127.906 52.1934V41.8817H135.698V52.1726C135.701 52.6862 135.602 53.1952 135.407 53.6704C135.212 54.1455 134.925 54.5773 134.562 54.941C134.2 55.3046 133.769 55.5929 133.294 55.7891C132.819 55.9853 132.31 56.0856 131.797 56.0843Z" fill="#FACEBB"/>
<path opacity="0.86" d="M127.906 46.1362C130.196 47.697 132.93 48.4734 135.698 48.3492V41.8817H127.906V46.1362Z" fill="#F5A8A4"/>
<path d="M143.797 28.4271C145.984 35.918 142.701 43.9699 136.166 45.8816C129.631 47.7933 122.327 42.8271 120.14 35.3362C117.953 27.8453 122.82 20.3544 129.356 18.4479C135.891 16.5415 141.61 20.9363 143.797 28.4271Z" fill="#FACEBB"/>
<path d="M121.433 35.2636C122.41 36.6454 122.935 38.2557 121.766 39.0817C120.597 39.9077 118.176 39.6012 117.205 38.2454C116.233 36.8895 116.389 35.0817 117.558 34.2558C118.727 33.4298 120.462 33.8817 121.433 35.2636Z" fill="#FACEBB"/>
<path d="M118.384 38.0167C118.233 37.8624 118.118 37.6772 118.046 37.474C117.974 37.2707 117.947 37.0542 117.966 36.8395C117.986 36.6247 118.052 36.4168 118.16 36.23C118.268 36.0433 118.415 35.8821 118.591 35.7577C118.767 35.6333 118.968 35.5486 119.18 35.5094C119.392 35.4702 119.61 35.4776 119.819 35.5308C120.028 35.5841 120.223 35.682 120.391 35.818C120.558 35.9539 120.694 36.1245 120.789 36.318C120.928 36.5085 121.048 36.7121 121.148 36.9258" stroke="#F5A8A4" stroke-width="0.5" stroke-linecap="round" stroke-linejoin="round"/>
<path d="M121.355 37.6635C121.273 37.7538 121.168 37.822 121.053 37.862C120.937 37.9021 120.813 37.9126 120.692 37.8926C120.571 37.8727 120.457 37.8229 120.36 37.7478C120.263 37.6727 120.186 37.5747 120.137 37.4625C120.087 37.3504 120.067 37.2277 120.077 37.1055C120.086 36.9833 120.127 36.8655 120.193 36.7628C120.26 36.66 120.352 36.5755 120.459 36.5169C120.567 36.4583 120.687 36.4274 120.81 36.4271" stroke="#F5A8A4" stroke-width="0.5" stroke-linecap="round" stroke-linejoin="round"/>
<path d="M133.116 27.8869C133.116 27.9619 133.094 28.0352 133.052 28.0976C133.011 28.16 132.952 28.2086 132.882 28.2373C132.813 28.266 132.737 28.2735 132.663 28.2588C132.59 28.2442 132.522 28.2081 132.469 28.1551C132.416 28.102 132.38 28.0345 132.365 27.9609C132.351 27.8873 132.358 27.8111 132.387 27.7418C132.415 27.6725 132.464 27.6133 132.526 27.5716C132.589 27.5299 132.662 27.5077 132.737 27.5077C132.787 27.5077 132.836 27.5175 132.882 27.5366C132.928 27.5556 132.97 27.5836 133.005 27.6188C133.04 27.654 133.068 27.6958 133.087 27.7418C133.107 27.7878 133.116 27.8371 133.116 27.8869Z" fill="#A36D66"/>
<path d="M139.989 27.8869C140.199 27.8869 140.368 27.7171 140.368 27.5076C140.368 27.2982 140.199 27.1284 139.989 27.1284C139.78 27.1284 139.61 27.2982 139.61 27.5076C139.61 27.7171 139.78 27.8869 139.989 27.8869Z" fill="#A36D66"/>
<path d="M131.002 25.7051C131.106 25.3919 131.306 25.1196 131.573 24.9273C131.841 24.735 132.163 24.6326 132.493 24.6349" stroke="#A36D66" stroke-width="0.5" stroke-linecap="round" stroke-linejoin="round"/>
<path d="M139.309 24.3233C139.601 24.2525 139.908 24.2635 140.194 24.3551C140.481 24.4467 140.737 24.6154 140.935 24.8428" stroke="#A36D66" stroke-width="0.5" stroke-linecap="round" stroke-linejoin="round"/>
<path d="M136.748 27.1284C136.748 27.1284 137.459 29.2687 137.994 30.7388C138.479 30.5996 138.988 30.5695 139.485 30.6505C139.953 30.8271 139.127 31.8713 138.114 32.3388" stroke="#A36D66" stroke-width="0.5" stroke-linecap="round" stroke-linejoin="round"/>
<path opacity="0.86" d="M130.374 32.5102C130.488 33.3622 129.594 34.1882 128.374 34.3544C127.153 34.5206 126.072 33.9544 125.958 33.0972C125.844 32.2401 126.742 31.4193 127.958 31.2583C129.174 31.0972 130.259 31.6687 130.374 32.5102Z" fill="#F5A8A4"/>
<path opacity="0.86" d="M147.314 30.5258C147.314 31.3882 146.316 32.0843 145.085 32.0843C143.854 32.0843 142.862 31.383 142.862 30.5258C142.862 29.6687 143.859 28.9674 145.085 28.9674C146.311 28.9674 147.314 29.6635 147.314 30.5258Z" fill="#F5A8A4"/>
<path d="M138.654 15.0973C137.438 15.2376 138.399 18.0012 138.399 18.0012C138.399 18.0012 135.88 14.5311 134.244 14.5674C132.607 14.6038 134.067 17.1908 134.067 17.1908C134.067 17.1908 131.407 15.2739 129.776 15.4869C128.145 15.6999 130.062 17.5648 130.062 17.5648C130.062 17.5648 126.659 16.0739 125.205 16.7492C123.75 17.4246 127.085 18.9466 127.085 18.9466C127.085 18.9466 117.355 19.8297 119.615 24.0167C119.615 24.0167 118.01 22.4583 117.797 23.1284C117.584 23.7986 120.077 24.6193 120.077 24.6193C118.839 25.0898 117.759 25.9 116.961 26.957C116.051 28.2453 117.818 32.1518 118.67 33.8401C119.21 33.8159 119.748 33.9329 120.23 34.1798C120.712 34.4266 121.121 34.7948 121.418 35.2479C121.418 35.2479 123.729 29.8713 123.496 24.6193C125.649 24.1651 127.644 23.1488 129.277 21.6739C129.277 21.6739 140.867 24.7596 142.644 22.2401C144.42 19.7207 139.87 14.957 138.654 15.0973Z" fill="#EA196C"/>
<path d="M135.729 33.7467C135.867 33.965 136.064 34.1388 136.299 34.2467C136.533 34.3546 136.794 34.392 137.049 34.3545C137.735 34.2506 138.56 34.3129 138.644 35.1856C138.784 36.7025 135.381 37.8714 133.75 35.7779C132.296 33.8869 134.566 31.8558 135.729 33.7467Z" fill="white"/>
<path d="M129.48 56.4947L126.264 61.3414C126.264 61.3414 122.955 55.6271 123.994 50.0895" stroke="#F9AAF5" stroke-width="0.5" stroke-linecap="round" stroke-linejoin="round"/>
<path d="M134.742 56.0842L137.859 60.6504C137.859 60.6504 140.223 55.2167 139.465 49.6842" stroke="#F9AAF5" stroke-width="0.5" stroke-linecap="round" stroke-linejoin="round"/>
<path d="M103.48 55.7155C104.973 60.009 107.022 64.0887 109.574 67.8505" stroke="#F9AAF5" stroke-width="0.5" stroke-linecap="round" stroke-linejoin="round"/>
<path d="M149.412 67.7725C149.412 67.7725 154.888 65.1751 158.197 62.4323C158.197 62.4323 152.882 51.9908 149.631 51.4453" fill="white"/>
<path d="M150.633 64.9829C150.633 64.9829 154.722 62.8427 157.142 60.4843" stroke="#F9AAF5" stroke-width="0.5" stroke-linecap="round" stroke-linejoin="round"/>
<path d="M150.633 60.6296C150.633 60.6296 150.602 67.2738 150.316 72.7595" stroke="#F9AAF5" stroke-width="0.5" stroke-linecap="round" stroke-linejoin="round"/>
<g style="mix-blend-mode:multiply">
<path d="M148.893 97.9386H112.685V100.178L148.893 98.4009V97.9386Z" fill="#F4D9E2"/>
</g>
<path d="M129.272 20.7596C126.031 23.622 121.849 23.5492 122.415 21.4246C122.981 19.2999 129.106 19.3467 129.106 19.3467C129.106 19.3467 125.272 17.8506 125.989 17.1493C126.706 16.448 130.046 17.5752 130.046 17.5752C130.046 17.5752 126.644 16.0843 125.189 16.7596C123.735 17.435 127.07 18.957 127.07 18.957C127.07 18.957 117.34 19.8402 119.6 24.0272C119.6 24.0272 117.994 22.4687 117.782 23.1388C117.569 23.809 120.062 24.6298 120.062 24.6298C118.824 25.1002 117.743 25.9105 116.945 26.9674C116.036 28.2557 117.802 32.1622 118.654 33.8505C119.195 33.8263 119.733 33.9434 120.215 34.1902C120.697 34.4371 121.106 34.8052 121.402 35.2583C121.402 35.2583 123.714 29.8817 123.48 24.6298C125.634 24.1755 127.628 23.1592 129.262 21.6843C129.262 21.6843 140.852 24.77 142.628 22.2505C140.078 24.7752 129.272 20.7596 129.272 20.7596Z" fill="#D1095B"/>
<path d="M138.654 15.0973C137.439 15.2376 138.4 18.0012 138.4 18.0012C138.4 18.0012 135.88 14.5311 134.244 14.5674C133.522 14.5674 133.407 15.0869 133.501 15.6739C133.501 15.5492 133.366 14.3908 134.82 14.9051C136.379 15.4246 138.976 19.0921 138.976 19.0921C138.976 19.0921 137.631 15.6376 138.789 15.4973C139.948 15.357 143.631 19.3986 142.878 21.8713C143.984 19.2843 139.807 14.9622 138.654 15.0973Z" fill="#FF7BB7"/>
<path d="M146.109 24.2765C146.571 26.4167 144.597 30.4791 138 29.1076C137.809 29.0696 137.611 29.0844 137.428 29.1503C137.245 29.2162 137.083 29.3308 136.961 29.4817C130.301 37.6167 126.841 30.6817 126.379 28.5206C125.916 26.3596 129.932 23.57 135.381 22.4012C140.831 21.2323 145.651 22.0687 146.109 24.2765Z" fill="#FF7BB7"/>
<g style="mix-blend-mode:soft-light">
<path d="M145.085 24.422C145.444 25.9805 145.085 28.9675 138.057 27.8818C137.901 27.8578 137.741 27.8728 137.593 27.9254C137.444 27.9779 137.311 28.0665 137.205 28.1831C131.002 35.2636 128.28 29.4714 127.922 27.887C127.563 26.3026 131.522 24.022 135.984 23.0091C140.446 21.9961 144.721 22.8065 145.085 24.422Z" fill="white"/>
</g>
<path d="M116.841 30.4168C116.981 31.1356 117.252 31.8225 117.641 32.4428C117.641 32.4428 121.096 32.3025 127.449 30.5519L126.623 28.4012C123.427 29.3558 120.154 30.0302 116.841 30.4168Z" fill="white"/>
<g style="mix-blend-mode:soft-light">
<path d="M146.109 24.2765C145.636 22.0687 140.831 21.2323 135.381 22.4012C132.982 22.8683 130.691 23.7811 128.628 25.0921C130.622 23.8909 132.808 23.0437 135.09 22.5882C140.54 21.4193 145.34 22.2609 145.818 24.4687C145.929 25.2519 145.815 26.0507 145.488 26.7712C145.162 27.4917 144.636 28.1041 143.974 28.5362C144.721 28.128 145.326 27.5014 145.707 26.7402C146.089 25.979 146.229 25.1194 146.109 24.2765Z" fill="white"/>
</g>
<path d="M138.488 28.4532C138.297 28.4146 138.099 28.4291 137.916 28.495C137.733 28.561 137.571 28.6759 137.449 28.8272C130.784 36.9623 127.329 30.0272 126.862 27.8662C126.776 27.3206 126.903 26.763 127.215 26.3077C126.54 27.061 126.218 27.8246 126.374 28.5363C126.836 30.6973 130.296 37.6324 136.955 29.4973C137.078 29.3464 137.24 29.2319 137.423 29.166C137.606 29.1001 137.804 29.0853 137.994 29.1233C142.218 30.0012 144.545 28.6506 145.553 27.0038C144.363 28.3077 142.135 29.2116 138.488 28.4532Z" fill="#E860A4"/>
<g style="mix-blend-mode:soft-light">
<path d="M135.984 23.009L135.636 23.0973L134.836 30.4167C135.704 29.7595 136.498 29.0106 137.205 28.183C137.302 28.0787 137.421 27.997 137.553 27.944L137.963 22.6765C137.298 22.7536 136.638 22.8645 135.984 23.009Z" fill="white"/>
<path d="M140.498 28.1103L140.773 22.5883C140.467 22.5883 140.155 22.5883 139.833 22.5883L139.594 28.0844C139.937 28.0895 140.218 28.1051 140.498 28.1103Z" fill="white"/>
</g>
<path d="M294.347 7.04541H243.417C238.841 7.04541 235.132 10.755 235.132 15.3311V86.4321C235.132 91.0082 238.841 94.7178 243.417 94.7178H294.347C298.923 94.7178 302.633 91.0082 302.633 86.4321V15.3311C302.633 10.755 298.923 7.04541 294.347 7.04541Z" fill="#941E7F"/>
<path d="M292.477 14.7805H245.282C242.964 14.7805 241.085 16.6598 241.085 18.9779V82.7803C241.085 85.0984 242.964 86.9777 245.282 86.9777H292.477C294.795 86.9777 296.674 85.0984 296.674 82.7803V18.9779C296.674 16.6598 294.795 14.7805 292.477 14.7805Z" fill="#B52CA2"/>
<g style="mix-blend-mode:multiply">
<path d="M235.132 15.0817V47.1544H264.612C264.891 47.155 265.168 47.1006 265.427 46.9941C265.685 46.8877 265.92 46.7313 266.118 46.5339C266.316 46.3365 266.473 46.1021 266.58 45.844C266.687 45.5858 266.742 45.3091 266.742 45.0297V7.73113C266.74 7.49708 266.698 7.26509 266.617 7.04541H243.168C241.037 7.04541 238.992 7.8921 237.485 9.3992C235.978 10.9063 235.132 12.9504 235.132 15.0817Z" fill="#DBC9F4"/>
</g>
<path opacity="0.38" d="M258.176 0.5H171.812C170.599 0.5 169.615 1.48381 169.615 2.6974V39.8557C169.615 41.0693 170.599 42.0531 171.812 42.0531H258.176C259.389 42.0531 260.373 41.0693 260.373 39.8557V2.6974C260.373 1.48381 259.389 0.5 258.176 0.5Z" fill="#F3E9FF"/>
<path d="M258.176 0.5H171.812C170.599 0.5 169.615 1.48381 169.615 2.6974V39.8557C169.615 41.0693 170.599 42.0531 171.812 42.0531H258.176C259.389 42.0531 260.373 41.0693 260.373 39.8557V2.6974C260.373 1.48381 259.389 0.5 258.176 0.5Z" stroke="#F3E9FF" stroke-miterlimit="10"/>
<path d="M219.641 56.0635H185.953C182.725 56.0635 180.108 58.68 180.108 61.9076V113.793C180.108 117.021 182.725 119.637 185.953 119.637H219.641C222.868 119.637 225.485 117.021 225.485 113.793V61.9076C225.485 58.68 222.868 56.0635 219.641 56.0635Z" fill="#9FFFDF"/>
<path d="M219.153 59.2427H186.446C184.702 59.2427 183.288 60.6568 183.288 62.4011V112.531C183.288 114.275 184.702 115.689 186.446 115.689H219.153C220.897 115.689 222.311 114.275 222.311 112.531V62.4011C222.311 60.6568 220.897 59.2427 219.153 59.2427Z" fill="#71F4C5"/>
<g style="mix-blend-mode:multiply">
<path d="M224.638 87.9075C221.027 87.9075 217.564 89.342 215.011 91.8954C212.457 94.4488 211.023 97.9119 211.023 101.523C211.023 103.311 211.375 105.081 212.059 106.733C212.744 108.384 213.747 109.885 215.011 111.149C216.275 112.413 217.776 113.415 219.428 114.099C221.08 114.782 222.85 115.134 224.638 115.133H225.366C225.445 114.752 225.485 114.364 225.485 113.975V87.9075H224.638Z" fill="#DBC9F4"/>
</g>
<path opacity="0.81" d="M265.189 83.0555H228.607C221.087 83.0555 214.991 89.1503 214.991 96.6685C214.991 104.187 221.087 110.281 228.607 110.281H265.189C272.708 110.281 278.804 104.187 278.804 96.6685C278.804 89.1503 272.708 83.0555 265.189 83.0555Z" fill="#C27DFF"/>
<path d="M265.189 83.0555H228.607C221.087 83.0555 214.991 89.1503 214.991 96.6685C214.991 104.187 221.087 110.281 228.607 110.281H265.189C272.708 110.281 278.804 104.187 278.804 96.6685C278.804 89.1503 272.708 83.0555 265.189 83.0555Z" stroke="#E4CAFF" stroke-miterlimit="10"/>
<path d="M284.768 122.193H256.108C246.245 122.193 238.249 130.189 238.249 140.053V166.442C238.249 176.306 246.245 184.302 256.108 184.302H284.768C294.631 184.302 302.628 176.306 302.628 166.442V140.053C302.628 130.189 294.631 122.193 284.768 122.193Z" fill="#9FFFDF"/>
<path d="M285.012 126.411H255.864C248.551 126.411 242.623 132.34 242.623 139.653V166.842C242.623 174.155 248.551 180.084 255.864 180.084H285.012C292.325 180.084 298.254 174.155 298.254 166.842V139.653C298.254 132.34 292.325 126.411 285.012 126.411Z" fill="#71F4C5"/>
<path d="M270.441 170.567C268.165 170.567 265.911 170.118 263.808 169.247C261.705 168.375 259.795 167.097 258.187 165.487C256.578 163.876 255.303 161.965 254.434 159.861C253.565 157.757 253.119 155.503 253.121 153.227C253.123 148.634 254.948 144.23 258.196 140.983C261.444 137.736 265.848 135.912 270.441 135.912C275.033 135.912 279.437 137.737 282.684 140.984C285.931 144.231 287.755 148.635 287.755 153.227C287.758 155.502 287.312 157.756 286.443 159.86C285.574 161.963 284.299 163.875 282.691 165.485C281.083 167.095 279.174 168.373 277.072 169.245C274.97 170.117 272.716 170.566 270.441 170.567Z" fill="white"/>
<path d="M250.721 153.227C250.721 150.589 251.251 147.978 252.28 145.549" stroke="white" stroke-linecap="round" stroke-linejoin="round"/>
<circle cx="270.441" cy="172.967" r="0.259739" fill="white"/>
<path d="M280.3 170.328C278.609 171.302 276.781 172.017 274.877 172.447" stroke="white" stroke-linecap="round" stroke-linejoin="round"/>
<path d="M288.124 161.985C287.689 162.86 287.19 163.702 286.633 164.505" stroke="white" stroke-linecap="round" stroke-linejoin="round"/>
<circle cx="290.16" cy="153.248" r="0.259739" fill="white"/>
<path d="M282.986 138.032C285.026 139.714 286.707 141.788 287.932 144.131" stroke="white" stroke-linecap="round" stroke-linejoin="round"/>
<circle cx="270.441" cy="133.528" r="0.259739" fill="white"/>
<path opacity="0.81" d="M79.2256 94.7178H41.7088C37.5431 94.7178 34.166 98.0948 34.166 102.261V157.762C34.166 161.928 37.5431 165.305 41.7088 165.305H79.2256C83.3914 165.305 86.7684 161.928 86.7684 157.762V102.261C86.7684 98.0948 83.3914 94.7178 79.2256 94.7178Z" fill="#C27DFF"/>
<path d="M79.2256 94.7178H41.7088C37.5431 94.7178 34.166 98.0948 34.166 102.261V157.762C34.166 161.928 37.5431 165.305 41.7088 165.305H79.2256C83.3914 165.305 86.7684 161.928 86.7684 157.762V102.261C86.7684 98.0948 83.3914 94.7178 79.2256 94.7178Z" stroke="#E4CAFF" stroke-miterlimit="10"/>
<path d="M77.2153 5.06104H2.76363C1.23732 5.06104 0 6.29835 0 7.82466V56.3544C0 57.8807 1.23732 59.118 2.76363 59.118H77.2153C78.7416 59.118 79.9789 57.8807 79.9789 56.3544V7.82466C79.9789 6.29835 78.7416 5.06104 77.2153 5.06104Z" fill="#941E7F"/>
<path d="M76.4881 6.86877H3.4754C2.47125 6.86877 1.65723 7.6828 1.65723 8.68695V55.4868C1.65723 56.4909 2.47125 57.305 3.4754 57.305H76.4881C77.4923 57.305 78.3063 56.4909 78.3063 55.4868V8.68695C78.3063 7.6828 77.4923 6.86877 76.4881 6.86877Z" stroke="#F3E9FF" stroke-width="0.75" stroke-miterlimit="10" stroke-linecap="round"/>
<path d="M16.0208 114.749C13.8771 114.749 11.8211 113.897 10.3052 112.382C8.78936 110.866 7.93774 108.81 7.93774 106.666V56.4531C7.93774 55.3916 8.14683 54.3405 8.55304 53.3598C8.95925 52.3791 9.55465 51.4881 10.3052 50.7375C11.0558 49.9869 11.9469 49.3915 12.9276 48.9853C13.9082 48.5791 14.9593 48.37 16.0208 48.37C17.0816 48.3707 18.1319 48.5803 19.1117 48.9869C20.0915 49.3935 20.9816 49.989 21.7312 50.7396C22.4809 51.4902 23.0753 52.3811 23.4806 53.3614C23.886 54.3417 24.0942 55.3923 24.0935 56.4531V106.666C24.0942 107.727 23.886 108.777 23.4806 109.758C23.0753 110.738 22.4809 111.629 21.7312 112.379C20.9816 113.13 20.0915 113.726 19.1117 114.132C18.1319 114.539 17.0816 114.748 16.0208 114.749Z" fill="#F3E9FF"/>
<path d="M182.534 46.9414C182.534 47.2496 182.443 47.5509 182.272 47.8072C182.1 48.0635 181.857 48.2632 181.572 48.3812C181.288 48.4991 180.974 48.53 180.672 48.4699C180.37 48.4097 180.092 48.2613 179.874 48.0434C179.656 47.8254 179.508 47.5477 179.447 47.2454C179.387 46.9431 179.418 46.6298 179.536 46.345C179.654 46.0602 179.854 45.8168 180.11 45.6456C180.366 45.4743 180.668 45.3829 180.976 45.3829C181.389 45.3829 181.786 45.5471 182.078 45.8394C182.37 46.1317 182.534 46.528 182.534 46.9414Z" fill="#F3E9FF"/>
<path d="M180.96 46.9414H187.012V42.0531" stroke="#F3E9FF" stroke-miterlimit="10"/>
<path d="M16.0209 109.855C15.8253 109.855 15.6317 109.817 15.4511 109.742C15.2705 109.667 15.1065 109.557 14.9685 109.418C14.8305 109.28 14.7211 109.116 14.6468 108.935C14.5724 108.754 14.5345 108.56 14.5352 108.365V54.479C14.5352 54.085 14.6917 53.7071 14.9703 53.4285C15.2489 53.1498 15.6268 52.9933 16.0209 52.9933C16.2164 52.9926 16.4102 53.0305 16.591 53.1049C16.7719 53.1793 16.9363 53.2886 17.0748 53.4266C17.2133 53.5646 17.3232 53.7287 17.3982 53.9092C17.4732 54.0898 17.5118 54.2835 17.5118 54.479V108.365C17.5125 108.561 17.4744 108.755 17.3997 108.936C17.325 109.117 17.2152 109.282 17.0766 109.42C16.938 109.559 16.7734 109.669 16.5922 109.743C16.411 109.818 16.2168 109.856 16.0209 109.855Z" fill="#FFD163"/>
<path d="M17.5845 101.632H14.6026C14.2673 101.632 13.9352 101.566 13.6254 101.437C13.3156 101.309 13.0342 101.121 12.7972 100.883C12.5603 100.646 12.3725 100.364 12.2447 100.054C12.1168 99.7439 12.0513 99.4117 12.052 99.0763C12.052 98.7413 12.118 98.4096 12.2462 98.1002C12.3743 97.7907 12.5622 97.5096 12.7991 97.2727C13.0359 97.0359 13.3171 96.848 13.6266 96.7198C13.936 96.5916 14.2677 96.5256 14.6026 96.5256H17.5845C18.2609 96.5256 18.9097 96.7944 19.388 97.2727C19.8664 97.751 20.1351 98.3998 20.1351 99.0763C20.1358 99.4117 20.0703 99.7439 19.9424 100.054C19.8146 100.364 19.6268 100.646 19.3899 100.883C19.1529 101.121 18.8715 101.309 18.5617 101.437C18.2519 101.566 17.9198 101.632 17.5845 101.632Z" fill="#43C9D7"/>
<path d="M75.3037 104.609H44.7999C43.0814 104.609 41.6882 106.002 41.6882 107.72V122.058C41.6882 123.777 43.0814 125.17 44.7999 125.17H75.3037C77.0222 125.17 78.4154 123.777 78.4154 122.058V107.72C78.4154 106.002 77.0222 104.609 75.3037 104.609Z" fill="#E4CAFF"/>
<path d="M41.6882 131.549H78.4154" stroke="#E4CAFF" stroke-miterlimit="10" stroke-linecap="round"/>
<path d="M41.6882 133.819H78.4154" stroke="#E4CAFF" stroke-miterlimit="10" stroke-linecap="round"/>
<path d="M41.6882 136.089H78.4154" stroke="#E4CAFF" stroke-miterlimit="10" stroke-linecap="round"/>
<path d="M41.6882 138.359H61.5427" stroke="#E4CAFF" stroke-miterlimit="10" stroke-linecap="round"/>
<path d="M41.6882 140.629H78.4154" stroke="#E4CAFF" stroke-miterlimit="10" stroke-linecap="round"/>
<path d="M41.6882 142.894H78.4154" stroke="#E4CAFF" stroke-miterlimit="10" stroke-linecap="round"/>
<path d="M41.6882 145.164H46.5817" stroke="#E4CAFF" stroke-miterlimit="10" stroke-linecap="round"/>
<path d="M41.6882 147.435H46.5817" stroke="#E4CAFF" stroke-miterlimit="10" stroke-linecap="round"/>
<path d="M41.6882 149.705H78.4154" stroke="#E4CAFF" stroke-miterlimit="10" stroke-linecap="round"/>
<path d="M41.6882 151.97H74.0206" stroke="#E4CAFF" stroke-miterlimit="10" stroke-linecap="round"/>
<path d="M41.6882 154.24H78.4154" stroke="#E4CAFF" stroke-miterlimit="10" stroke-linecap="round"/>
<path d="M41.6882 156.51H51.4752" stroke="#E4CAFF" stroke-miterlimit="10" stroke-linecap="round"/>
<g opacity="0.81">
<path d="M47.927 113.191C48.966 113.191 48.966 116.307 50.0465 116.307C51.127 116.307 51.0854 113.191 52.1659 113.191C53.2465 113.191 53.2049 116.307 54.2802 116.307C55.3555 116.307 55.3192 113.191 56.3997 113.191C57.4802 113.191 57.4386 116.307 58.5192 116.307C59.5997 116.307 59.5581 113.191 60.6386 113.191C61.7192 113.191 61.6776 116.307 62.7581 116.307C63.8386 116.307 63.7971 113.191 64.8776 113.191C65.9581 113.191 65.9165 116.307 66.9919 116.307C68.0672 116.307 68.0308 113.191 69.1113 113.191C70.1919 113.191 70.1503 116.307 71.236 116.307C72.3217 116.307 72.275 113.191 73.3607 113.191" stroke="#C27DFF" stroke-width="4" stroke-miterlimit="10" stroke-linecap="round"/>
</g>
<path d="M250.186 140.946L270.446 153.247L264.83 130.229C258.722 131.721 253.455 135.575 250.186 140.946Z" fill="#43C9D7"/>
<path opacity="0.38" d="M187.838 7.04541H175.729C175.313 7.04541 174.976 7.38265 174.976 7.79866V29.6635C174.976 30.0795 175.313 30.4168 175.729 30.4168H187.838C188.254 30.4168 188.592 30.0795 188.592 29.6635V7.79866C188.592 7.38265 188.254 7.04541 187.838 7.04541Z" fill="#F3E9FF"/>
<path opacity="0.38" d="M187.838 7.04541H175.729C175.313 7.04541 174.976 7.38265 174.976 7.79866V29.6635C174.976 30.0795 175.313 30.4168 175.729 30.4168H187.838C188.254 30.4168 188.592 30.0795 188.592 29.6635V7.79866C188.592 7.38265 188.254 7.04541 187.838 7.04541Z" fill="#F3E9FF"/>
<path d="M194.004 10.4169H249.308" stroke="#F3E9FF" stroke-width="2" stroke-miterlimit="10" stroke-linecap="round"/>
<path d="M194.004 14.5623H249.583" stroke="#F3E9FF" stroke-width="0.75" stroke-miterlimit="10" stroke-linecap="round"/>
<path d="M194.004 16.3909H249.583" stroke="#F3E9FF" stroke-width="0.75" stroke-miterlimit="10" stroke-linecap="round"/>
<path d="M194.004 18.2194H249.583" stroke="#F3E9FF" stroke-width="0.75" stroke-miterlimit="10" stroke-linecap="round"/>
<path d="M194.004 20.048H249.583" stroke="#F3E9FF" stroke-width="0.75" stroke-miterlimit="10" stroke-linecap="round"/>
<path d="M194.004 21.8713H249.583" stroke="#F3E9FF" stroke-width="0.75" stroke-miterlimit="10" stroke-linecap="round"/>
<path d="M194.004 23.7H249.583" stroke="#F3E9FF" stroke-width="0.75" stroke-miterlimit="10" stroke-linecap="round"/>
<path d="M194.004 25.5284H249.583" stroke="#F3E9FF" stroke-width="0.75" stroke-miterlimit="10" stroke-linecap="round"/>
<path d="M194.004 27.3518H249.583" stroke="#F3E9FF" stroke-width="0.75" stroke-miterlimit="10" stroke-linecap="round"/>
<path d="M194.004 29.1804H249.583" stroke="#F3E9FF" stroke-width="0.75" stroke-miterlimit="10" stroke-linecap="round"/>
<path d="M23.9 23.9069C24.9209 19.561 22.2255 15.2104 17.8797 14.1895C13.5338 13.1686 9.18316 15.864 8.16225 20.2099C7.14133 24.5557 9.83674 28.9063 14.1826 29.9273C18.5285 30.9482 22.8791 28.2528 23.9 23.9069Z" fill="#F3E9FF"/>
<path d="M16.0207 24.4532C17.3519 24.4532 18.4311 23.374 18.4311 22.0428C18.4311 20.7116 17.3519 19.6324 16.0207 19.6324C14.6895 19.6324 13.6104 20.7116 13.6104 22.0428C13.6104 23.374 14.6895 24.4532 16.0207 24.4532Z" fill="#FFD163"/>
<path d="M28.9246 14.9883C30.6025 14.9883 30.6025 18.1052 32.2804 18.1052C33.9583 18.1052 33.9583 14.9883 35.6362 14.9883C37.3141 14.9883 37.3141 18.1052 38.9921 18.1052C40.67 18.1052 40.6648 14.9883 42.3427 14.9883C44.0206 14.9883 44.0206 18.1052 45.6985 18.1052C47.3764 18.1052 47.3764 14.9883 49.0544 14.9883C50.7323 14.9883 50.7323 18.1052 52.4102 18.1052C54.0881 18.1052 54.0881 14.9883 55.766 14.9883C57.444 14.9883 57.4439 18.1052 59.1219 18.1052C60.7998 18.1052 60.7998 14.9883 62.4777 14.9883C64.1556 14.9883 64.1608 18.1052 65.8387 18.1052C67.5166 18.1052 67.5218 14.9883 69.1997 14.9883" stroke="white" stroke-width="4" stroke-miterlimit="10" stroke-linecap="round"/>
<path d="M28.9246 24.9155H69.766" stroke="white" stroke-miterlimit="10" stroke-linecap="round"/>
<path d="M28.9246 28.4012H69.766" stroke="white" stroke-miterlimit="10" stroke-linecap="round"/>
<path d="M8.64941 33.8453H69.6102" stroke="white" stroke-miterlimit="10" stroke-linecap="round"/>
<path d="M68.4257 38.0167H45.5531C44.8989 38.0167 44.3687 38.547 44.3687 39.2011V51.8089C44.3687 52.463 44.8989 52.9933 45.5531 52.9933H68.4257C69.0798 52.9933 69.6101 52.463 69.6101 51.8089V39.2011C69.6101 38.547 69.0798 38.0167 68.4257 38.0167Z" stroke="white" stroke-miterlimit="10" stroke-linecap="round"/>
<path d="M214.664 72.562H191.049C190.396 72.562 189.769 72.3026 189.308 71.8408C188.846 71.3791 188.586 70.7528 188.586 70.0997C188.588 69.4476 188.848 68.8226 189.309 68.3619C189.771 67.9013 190.397 67.6426 191.049 67.6426H214.664C214.987 67.6426 215.306 67.7061 215.605 67.8296C215.903 67.9531 216.174 68.1341 216.402 68.3623C216.63 68.5904 216.811 68.8613 216.934 69.1594C217.058 69.4575 217.121 69.777 217.121 70.0997C217.121 70.7519 216.863 71.3774 216.402 71.839C215.941 72.3006 215.316 72.5607 214.664 72.562Z" fill="#F3E9FF"/>
<path d="M223.927 95.1074C225.864 95.1074 225.864 98.2243 227.802 98.2243C229.739 98.2243 229.739 95.1074 231.677 95.1074C233.615 95.1074 233.615 98.2243 235.552 98.2243C237.49 98.2243 237.49 95.1074 239.428 95.1074C241.365 95.1074 241.365 98.2243 243.303 98.2243C245.241 98.2243 245.241 95.1074 247.178 95.1074C249.116 95.1074 249.116 98.2243 251.054 98.2243C252.991 98.2243 252.991 95.1074 254.929 95.1074C256.867 95.1074 256.867 98.2243 258.804 98.2243C260.742 98.2243 260.742 95.1074 262.68 95.1074C264.617 95.1074 264.622 98.2243 266.56 98.2243C268.498 98.2243 268.503 95.1074 270.441 95.1074" stroke="white" stroke-width="9" stroke-linecap="round" stroke-linejoin="round"/>
<path d="M177.973 104.957V107.149" stroke="#F3E9FF" stroke-width="0.75" stroke-miterlimit="10" stroke-linecap="round"/>
<path d="M177.973 92.962V102.614" stroke="#F3E9FF" stroke-width="0.75" stroke-miterlimit="10" stroke-linecap="round"/>
<path d="M209.49 54.0531H217.901" stroke="#F3E9FF" stroke-width="0.75" stroke-miterlimit="10" stroke-linecap="round"/>
<path d="M227.116 44.0375H245.911" stroke="#F3E9FF" stroke-width="0.75" stroke-miterlimit="10" stroke-linecap="round"/>
<path d="M273.802 82.936C276.066 84.3974 277.992 86.3241 279.454 88.588" stroke="#F3E9FF" stroke-width="0.75" stroke-miterlimit="10" stroke-linecap="round"/>
<path d="M236.747 112.219H248.155" stroke="#F3E9FF" stroke-width="0.75" stroke-miterlimit="10" stroke-linecap="round"/>
<path d="M269.511 186.52H281.209" stroke="#F3E9FF" stroke-width="0.75" stroke-miterlimit="10" stroke-linecap="round"/>
<path d="M275.36 120.084H280.3" stroke="#F3E9FF" stroke-width="0.75" stroke-miterlimit="10" stroke-linecap="round"/>
<path d="M236.358 146.448V163.247" stroke="#F3E9FF" stroke-width="0.75" stroke-miterlimit="10" stroke-linecap="round"/>
<path d="M233.334 75.5543V78.9205" stroke="#F3E9FF" stroke-width="0.75" stroke-miterlimit="10" stroke-linecap="round"/>
<path d="M5.74023 81.4244V96.5257" stroke="#F3E9FF" stroke-width="0.75" stroke-miterlimit="10" stroke-linecap="round"/>
<path d="M25.8389 62.4634V67.4192" stroke="#F3E9FF" stroke-width="0.75" stroke-miterlimit="10" stroke-linecap="round"/>
<path d="M31.8596 143.814V153.757" stroke="#F3E9FF" stroke-width="0.75" stroke-miterlimit="10" stroke-linecap="round"/>
<path d="M88.7063 113.585V120.313" stroke="#F3E9FF" stroke-width="0.75" stroke-miterlimit="10" stroke-linecap="round"/>
<path d="M56.2336 92.7179H61.5012" stroke="#F3E9FF" stroke-width="0.75" stroke-miterlimit="10" stroke-linecap="round"/>
<path d="M227.116 50.0895C227.733 50.0895 228.233 49.5894 228.233 48.9726C228.233 48.3558 227.733 47.8557 227.116 47.8557C226.499 47.8557 225.999 48.3558 225.999 48.9726C225.999 49.5894 226.499 50.0895 227.116 50.0895Z" fill="#F3E9FF"/>
</svg>
